<svg version="1.1" xmlns="http://www.w3.org/2000/svg" xmlns:xlink="http://www.w3.org/1999/xlink" x="0px" y="0px" viewBox="0 0 2002.2 740.6" style="enable-background:new 0 0 2002.2 909.6;" xml:space="preserve">
    <style type="text/css">
        .st0{fill:none;stroke:#1D1D1B;stroke-width:1.4704;stroke-miterlimit:10;}
        .st1{fill:none;stroke:#1D1D1B;stroke-width:0.9273;stroke-miterlimit:10;}
        .st2{fill:#FFFFFF;stroke:#000000;stroke-miterlimit:10;}
        .st3{opacity: 0.4;fill:#0285FF;stroke:#1D1D1B;stroke-width:1.4704;stroke-miterlimit:10;}
        .st3:hover {fill: #0099ff; } 
        .st5{fill: black; font-size:15px; font-family:'Lemon/Milk(RUS BY LYAJKA) Regular';}
        .st6{fill:#1D1D1B; font-size:12px;font-weight:700;}
        .st7{opacity: 0.4;fill:#228FD1;stroke:#1D1D1B;stroke-width:1.4704;stroke-miterlimit:10;}
        .st7:hover {fill: #077bc4; } 
        .st8{opacity: 0.4;fill:white;stroke:#1D1D1B;stroke-width:1.4704;stroke-miterlimit:10;}
        .st8:hover {fill: #3e8bff; opacity: 0.8;} 
        .st9{opacity: 0.4;fill:#0712A1;stroke:#1D1D1B;stroke-width:1.4704;stroke-miterlimit:10;}
        .st9:hover {fill: #0011ff; } 
        .stv{fill:#f03434; opacity:0.7; stroke:#1D1D1B;}
        .stv:hover {fill: #ec0707; } 
        .st10{fill: black; font-size:14px; font-family:'FranklinGothic-Medium';}
        .st13{fill:#149BD7;}
        .st14{opacity: 0.4;fill:#098CBB;}
        .st15{fill:#FFFFFF;}

        .st0t{fill:#C9CACB;stroke:#66676A;stroke-width:0.5;stroke-miterlimit:10;}
        .st1t{fill:#EFEFEF;}
        .st2t{fill:#981715;}
        .st3t{opacity:0.29;fill:#FFFFFF;}
    </style>
    <g id="Слой_1">
        <polyline class="st0" points="1890.6,228.7 1901.2,200.3 1957.8,200.3 1957.8,379.8 1873.2,379.8 1863,352.6 	"></polyline>
        <polyline class="st0" points="1854.3,379.5 1771.8,379.5 1761.1,352.6 	"></polyline>
        <polyline class="st0" points="1752.3,379.5 1702,379.5 1691,353.7 	"></polyline>
        <polyline class="st0" points="1464.1,379.5 1387.8,379.5 1376.3,353 	"></polyline>
        <polyline class="st0" points="1355.7,379.5 1296.1,379.5 1284.7,353 	"></polyline>
        <polyline class="st0" points="1580.7,379.5 1484,379.5 1472.6,353 	"></polyline>
        <polyline class="st0" points="1274.9,379.6 1162.7,379.6 1151.3,353 	"></polyline>
        <polyline class="st0" points="1143.2,379.6 1042.7,379.6 1031.8,352.9 	"></polyline>
        <polyline class="st0" points="1023.2,379.6 850.1,379.6 839.3,352.7 	"></polyline>
        <polyline class="st0" points="830.8,379.6 725.5,379.7 714,352.7 	"></polyline>
        <polyline class="st0" points="703.8,379.7 639.2,379.7 628.5,352.8 	"></polyline>
        <polyline class="st0" points="621.8,379.7 602.3,379.7 601.9,555.3 366.3,555.3 366.3,379.8 317.3,379.8 305.8,353.1 	"></polyline>
        <polyline class="st0" points="295,379.8 133.7,379.8 122.7,353 	"></polyline>
        <polyline class="st0" points="133.7,200.3 38.1,200.3 38.1,379.8 112.4,379.8 	"></polyline>
        <polyline class="st0" points="215.6,200.3 157.8,200.3 146.7,227.1 	"></polyline>
        <polyline class="st0" points="300.8,200.3 235.6,200.3 224.7,226.4 	"></polyline>
        <polyline class="st0" points="463.6,200.3 321.9,200.3 310.6,227.1 	"></polyline>
        <line class="st0" x1="665.8" y1="200.3" x2="522" y2="200.3"></line>
        <polyline class="st0" points="832.2,200.3 691.1,200.3 679.4,227.1 	"></polyline>
        <polyline class="st0" points="890.7,200.3 856,200.3 844.9,226.4 	"></polyline>
        <polyline class="st0" points="1146.4,200.3 911.8,200.3 900.6,226.4 	"></polyline>
        <polyline class="st0" points="1285.3,200.3 1170.6,200.3 1159.1,227.1 	"></polyline>
        <polyline class="st0" points="1514.6,200.3 1306.2,200.3 1295.3,226.3 	"></polyline>
        <polyline class="st0" points="1622.9,200.3 1540.9,200.3 1529.3,227.1 	"></polyline>
        <polyline class="st0" points="1738.6,200.3 1644.7,200.3 1633.8,227.1 	"></polyline>
        <polyline class="st0" points="1871.9,200.3 1764.4,200.3 1753,227.1 	"></polyline>
        <line class="st1" x1="366.3" y1="200.3" x2="366.3" y2="379.8"></line>
        <rect x="360.5" y="402.9" class="st2" width="10.9" height="64"></rect>
        <rect x="360.5" y="473.2" class="st2" width="10.9" height="64"></rect>
        <g>
            <polyline class="st0" points="1602.8,406.6 1592.5,379.8 1581.4,379.8 1581.4,555.3 1651.1,555.3 1651.1,379.8 1640.3,379.8 
                1630,406.6 		"></polyline>
            <line class="st0" x1="1597.6" y1="425.6" x2="1634.5" y2="425.6"></line>
            <line class="st0" x1="1597.6" y1="439.5" x2="1634.5" y2="439.5"></line>
            <line class="st0" x1="1597.6" y1="453.3" x2="1634.5" y2="453.3"></line>
            <line class="st0" x1="1597.6" y1="467.1" x2="1634.5" y2="467.1"></line>
            <line class="st0" x1="1597.6" y1="480.9" x2="1634.5" y2="480.9"></line>
            <line class="st0" x1="1597.6" y1="494.8" x2="1634.5" y2="494.8"></line>
            <line class="st0" x1="1597.6" y1="508.6" x2="1634.5" y2="508.6"></line>
        </g>
        <g>
            <polyline class="st0" points="498,173.5 509.6,200.3 522,200.3 522,80.5 451.5,80.5 451.5,200.3 463.5,200.3 475,173.5 		"></polyline>
            <line class="st0" x1="470.3" y1="92.2" x2="504.7" y2="92.2"></line>
            <line class="st0" x1="470.3" y1="103.8" x2="504.7" y2="103.8"></line>
            <line class="st0" x1="470.3" y1="115.4" x2="504.7" y2="115.4"></line>
            <line class="st0" x1="470.3" y1="126.9" x2="504.7" y2="126.9"></line>
            <line class="st0" x1="470.3" y1="138.5" x2="504.7" y2="138.5"></line>
            <line class="st0" x1="470.3" y1="150.1" x2="504.7" y2="150.1"></line>
            <line class="st0" x1="470.3" y1="161.7" x2="504.7" y2="161.7"></line>
        </g>
        <rect x="38.1" y="25.1" class="st0" width="1919.6" height="530.2"></rect>
        <g>
            <rect x="1579.8" y="25.1" class="st3" width="108.4" height="175.2" id="d20"></rect>
            <text transform="matrix(1 0 0 1 1623.8115 190.2587)" class="st5">520</text>
        </g>
        <g>
            <rect x="1359.4" y="25.1" class="st7" width="220.4" height="175.2" id="d18"></rect>
            <text transform="matrix(1 0 0 1 1518.1033 190.2587)" class="st5">518</text>
        </g>
        <g>
            <rect x="1197" y="25.1" class="st3" width="162.4" height="175.2" id="d16"></rect>
            <text transform="matrix(1 0 0 1 1282.6149 190.2587)" class="st5">516</text>
        </g>
        <g>
            <rect x="1085.4" y="25.1" class="st8" width="111.6" height="175.2" id="d14"></rect>
            <text transform="matrix(1 0 0 1 1146.436 190.2587)" class="st5">514</text>
        </g>
        <g>
            <rect x="871.9" y="25.1" class="st9" width="213.5" height="175.2" id="d12"></rect>
            <text transform="matrix(1 0 0 1 892.1381 190.2587)" class="st5">512</text>
        </g>
        <g>
            <rect x="763.9" y="25.1" class="st9" width="107.7" height="175.2" id="d10"></rect>
            <text transform="matrix(1 0 0 1 832.2129 190.2587)" class="st5">510</text>
        </g>
        <g>
            <rect x="602.7" y="25.1" class="st3" width="161.1" height="175.2" id="d8"></rect>
            <text transform="matrix(1 0 0 1 668.3456 190.2583)" class="st5">508</text>
        </g>
        <g>
            <rect x="602.7" y="379.7" class="st8" width="65.5" height="175.6" id="dwc"></rect>
            <text transform="matrix(1 0 0 1 623.0558 398.7562)" class="st5">WC</text>
        </g>
        <g>
            <rect x="668.4" y="379.7" class="st8" width="107.3" height="175.6" id="d5"></rect>
            <text transform="matrix(1 0 0 1 703.8235 398.9286)" class="st5">505</text>
        </g>
        <line class="st0" x1="1651.1" y1="379.8" x2="1684.9" y2="379.8"></line>
        <g>
            <rect x="775.1" y="379.7" class="st7" width="210.5" height="175.6" id="d7"></rect>
            <text transform="matrix(1 0 0 1 830.7966 399.446)" class="st5">507</text>
        </g>
        <g>
            <rect x="986" y="379.7" class="stv" width="89" height="175.6" id="d9"></rect>
            <text transform="matrix(1 0 0 1 1022.2258 398.8375)" class="st5">509 </text>
        </g>
        <g>
            <rect x="1075" y="379.7" class="st3" width="161.7" height="175.6" id="d11"></rect>
            <text transform="matrix(1 0 0 1 1143.2117 399.0546)" class="st5">511</text>
        </g>
        <g>
            <rect x="1236.9" y="379.7" class="st8" width="107" height="175.6" id="d13"></rect>
            <text transform="matrix(1 0 0 1 1274.905 398.7562)" class="st5">513 </text>
        </g>
        <g>
            <polygon class="stv" points="1342.8,555.3 1419.5,555.3 1419.5,379.8 1343.8,379.8" id="d13a"></polygon>
            <text transform="matrix(1 0 0 1 1357.2371 398.7562)" class="st5">513 A</text>
        </g>
        <g>
            <rect x="1419.3" y="379.8" class="stv" width="162" height="175.5" id="d15"></rect>
            <text transform="matrix(1 0 0 1 1464.1227 399.4654)" class="st5">515</text>
        </g>
        <g>
            <rect x="1651.1" y="379.8" class="st8" width="78.6" height="175.5" id="dwc"></rect>
            <text transform="matrix(1 0 0 1 1684.8928 398.7562)" class="st5">WC</text>
        </g>
        <g>
            <rect x="1729.7" y="379.8" class="st3" width="105.7" height="175.5" id="d17"></rect>
            <text transform="matrix(1 0 0 1 1751.8947 399.3608)" class="st5">517</text>
        </g>
        <g>
            <rect x="1835.4" y="379.8" class="stv" width="122.4" height="175.5" id="d19"></rect>
            <text transform="matrix(1 0 0 1 1854.3418 398.812)" class="st5">519</text>
        </g>
        <g>
            <rect x="270.8" y="379.8" class="st8" width="67.1" height="175.5" id="d3"></rect>
            <text transform="matrix(1 0 0 1 296.044 399.4054)" class="st5">503</text>
        </g>
        <g>
            <rect x="38.7" y="380" class="st3" width="232.1" height="175.7" id="d1"></rect>
            <text transform="matrix(1 0 0 1 112.4054 398.107)" class="st5">501</text>
        </g>
        <g>
            <rect x="268.7" y="25.1" class="st3" width="98.1" height="175.2" id="d6"></rect>
            <text transform="matrix(1 0 0 1 300.756 190.16)" class="st5">506</text>
        </g>
        <g>
            <rect x="194.2" y="25.1" class="st8" width="74.5" height="175.2" id="d4"></rect>
            <text transform="matrix(1 0 0 1 218.7884 190.16)" class="st5">504</text>
        </g>
        <g>
            <rect x="38.1" y="25.1" class="st9" width="156.1" height="175.2" id="d2"></rect>
            <text transform="matrix(1 0 0 1 135.7885 189.9037)" class="st5">502</text>
        </g>
        <g>
            <rect x="1688.2" y="25.1" class="st7" width="269.6" height="175.2" id="d22"></rect>
            <text transform="matrix(1 0 0 1 1740.3782 190.2587)" class="st5">522</text>
            <text transform="matrix(1 0 0 1 1871.8948 190.2587)" class="st5">522</text>
        </g>
    </g>
    <g id="Слой_2">
        <text transform="matrix(1 0 0 1 142.5245 548.7995)" class="st10">66.2</text>
        <text transform="matrix(1 0 0 1 219.2054 44.1356)" class="st10">16.3</text>
        <text transform="matrix(1 0 0 1 305.5062 44.1356)" class="st10">31.9</text>
        <text transform="matrix(1 0 0 1 671.0638 44.1356)" class="st10">49.2</text>
        <text transform="matrix(1 0 0 1 808.5341 44.1356)" class="st10">32.9 </text>
        <text transform="matrix(1 0 0 1 967.9263 44.1356)" class="st10">65.2</text>
        <text transform="matrix(1 0 0 1 1128.9982 44.1356)" class="st10">34.1</text>
        <text transform="matrix(1 0 0 1 1265.9982 44.1356)" class="st10">49.6</text>
        <text transform="matrix(1 0 0 1 1457.3976 44.1356)" class="st10">67.3</text>
        <text transform="matrix(1 0 0 1 1624.2284 44.1356)" class="st10">33.1</text>
        <text transform="matrix(1 0 0 1 1806.0397 44.1356)" class="st10">100.1</text>
        <text transform="matrix(1 0 0 1 103.9416 44.1356)" class="st10">50.8</text>
        <text transform="matrix(1 0 0 1 295.567 548.7995)" class="st10">15.1</text>
        <text transform="matrix(1 0 0 1 626.8374 548.7995)" class="st10">7.7</text>
        <text transform="matrix(1 0 0 1 1679.7131 548.7995)" class="st10">7.7</text>
        <text transform="matrix(1 0 0 1 1771.8905 548.7995)" class="st10">31.3</text>
        <text transform="matrix(1 0 0 1 1884.3708 548.7995)" class="st10">35.4</text>
        <text transform="matrix(1 0 0 1 707.2917 548.7995)" class="st10">32.5</text>
        <text transform="matrix(1 0 0 1 1018.3214 548.7995)" class="st10">19.0</text>
        <text transform="matrix(1 0 0 1 1278.1521 548.7995)" class="st10">32.2</text>
        <text transform="matrix(1 0 0 1 1368.3408 548.7995)" class="st10">16.2</text>
        <text transform="matrix(1 0 0 1 1487.8396 548.7995)" class="st10">49.2</text>
        <text transform="matrix(1 0 0 1 1140.9548 548.7995)" class="st10">49.1</text>
        <text transform="matrix(1 0 0 1 868.6432 548.7995)" class="st10">64.1</text>
        <g>
            <circle class="st13" cx="977.4" cy="125.6" r="19.1"></circle>
            <path class="st14" d="M996.5,125.9C996.5,125.9,996.4,125.9,996.5,125.9c-2.6-2.6-5.1-5.1-7.6-7.6c-0.2-0.2-0.4-0.3-0.7-0.3
                c-3.6,0-7.1,0-10.6,0s-7.1,0-10.7,0c-0.1,0-0.2,0-0.2,0c-0.3,0-0.5,0.2-0.5,0.5c0,0.1,0,0.2,0,0.3c0,4.6,0,9.2,0,13.9
                c0,0.3,0.1,0.5,0.3,0.7c1.6,1.6,3.2,3.2,4.9,4.9c2.1,2.1,4.3,4.3,6.4,6.5c0,0,0.1,0.1,0.1,0.1C988,144.5,996.3,136.2,996.5,125.9z
                "></path>
            <g>
                <path class="st15" d="M966.6,133.3h21.6c0.4,0,0.6-0.3,0.6-0.6v-14.1c0-0.4-0.3-0.6-0.6-0.6h-21.6c-0.4,0-0.6,0.3-0.6,0.6v14.1
                    C966,133,966.3,133.3,966.6,133.3z M967.3,131l6.8-6.8l7.9,7.9h-14.7V131z M983.8,132.1l-2.7-2.7l2-2l4.3,4.3
                    c0,0,0.1,0.1,0.1,0.1v0.3L983.8,132.1L983.8,132.1z M987.6,119.2V130l-4-4c-0.3-0.3-0.7-0.3-0.9,0l-2.4,2.4l-5.6-5.6
                    c-0.3-0.3-0.7-0.3-0.9,0l-6.4,6.4v-10H987.6z"></path>
                <path class="st15" d="M980.1,125.3c1.3,0,2.4-1.1,2.4-2.4c0-1.3-1.1-2.4-2.4-2.4c-1.3,0-2.4,1.1-2.4,2.4
                    C977.7,124.2,978.8,125.3,980.1,125.3z M980.1,121.7c0.6,0,1.1,0.5,1.1,1.1s-0.5,1.1-1.1,1.1c-0.6,0-1.1-0.5-1.1-1.1
                    S979.5,121.7,980.1,121.7z"></path>
            </g>
        </g>
    </g>
    <!-- <g id="Слой_3">
        <path class="st16" d="M1096.6,639.6c-23.9-21.9-55.4-35.5-90-36.6v143.4L1096.6,639.6L1096.6,639.6z"/>
        <path class="st17" d="M883.6,815.5c-13.1-21.3-20.7-46.3-20.7-73.1c0-77,62.4-139.5,139.5-139.5c1.4,0,2.8,0,4.2,0.1v143.4
            L883.6,815.5L883.6,815.5z"/>
        <path class="st18" d="M883.6,815.5c24.6,39.8,68.6,66.4,118.8,66.4c40.2,0,76.4-17,101.9-44.2l-97.7-91.2L883.6,815.5L883.6,815.5z
            "/>
        <path class="st19" d="M1096.6,639.6l-90,106.8l97.7,91.2c23.3-24.9,37.6-58.4,37.6-95.2C1141.9,701.8,1124.5,665.1,1096.6,639.6
            L1096.6,639.6z"/>
        <text transform="matrix(1 0 0 1 1032.6532 652.8439)" class="st10">3</text>
        <text transform="matrix(1 0 0 1 1084.293 741.2847)" class="st10">7</text>
        <text transform="matrix(1 0 0 1 989.6547 816.8098)" class="st10">8</text>
        <text transform="matrix(1 0 0 1 939.717 704.5706)" class="st10">9</text>
    </g> -->
    <g id="Слой_4">
        <text transform="matrix(1 0 0 1 83.0675 101.6994)" class="st6">Комп. кл.</text>
        <text transform="matrix(1 0 0 1 646.4147 101.6994)" class="st6">Навч. ауд.</text>
        <text transform="matrix(1 0 0 1 787.7893 101.6994)" class="st6">Комп. кл.</text>
        <text transform="matrix(1 0 0 1 944.3157 101.6994)" class="st6">Комп. кл.</text>
        <text transform="matrix(1 0 0 1 286.4903 101.6994)"><tspan x="0" y="0" class="st6">Комп. кл. /</tspan><tspan x="0" y="14.4" class="st6">Навч. ауд.</tspan></text>
        <text transform="matrix(1 0 0 1 1244.7192 101.6994)"><tspan x="0" y="0" class="st6">Комп. кл. /</tspan><tspan x="0" y="14.4" class="st6">Навч. ауд.</tspan></text>
        <text transform="matrix(1 0 0 1 1432.1202 101.6994)" class="st6">Лекц. ауд.</text>
        <text transform="matrix(1 0 0 1 1785.4984 101.6994)" class="st6">Лекц. ауд.</text>
        <text transform="matrix(1 0 0 1 1602.9506 101.6994)" class="st6">Навч. ауд.</text>
        <text transform="matrix(1 0 0 1 1120.7192 101.6994)" class="st6">КАГМФ</text>
        <text transform="matrix(1 0 0 1 118.9691 464.1636)"><tspan x="0" y="0" class="st6">Комп. кл. /</tspan><tspan x="0" y="14.4" class="st6">Навч. ауд.</tspan></text>
        <text transform="matrix(1 0 0 1 700.6404 464.1636)" class="st6">КАГМФ</text>
        <text transform="matrix(1 0 0 1 846.8254 464.1636)" class="st6">Лекц. ауд.</text>
        <text transform="matrix(1 0 0 1 1270.5649 464.1636)" class="st6">КІПІЕК</text>
        <text transform="matrix(1 0 0 1 1122.036 464.1636)"><tspan x="0" y="0" class="st6">Комп. кл. /</tspan><tspan x="0" y="14.4" class="st6">Навч. ауд.</tspan></text>
        <text transform="matrix(1 0 0 1 1750.0737 464.1636)"><tspan x="0" y="0" class="st6">Комп. кл. /</tspan><tspan x="0" y="14.4" class="st6">Навч. ауд.</tspan></text>
    </g>
    <g id="Слой_6">
        <polyline class="st1" points="52.9,602.9 56.6,611.4 60.5,611.4 60.5,573.3 38.1,573.3 38.1,611.4 41.9,611.4 45.6,602.9 		"></polyline>
    
        <rect x="38.1" y="621.1" class="st2" width="11" height="44.9"></rect>
        <text transform="matrix(1 0 0 1 68.8309 595.8264)" style="font-size: 15px; font-weight:500;" class="st6">Сходи</text>
        <text transform="matrix(1 0 0 1 68.8309 647.1559)" style="font-size: 15px; font-weight:500;" class="st6">Ліфт</text>
        <rect x="38.1" y="676.7" class="stv" width="19.7" height="46"></rect>
	    <text transform="matrix(1 0 0 1 68.8309 705.2941)" style="font-size: 15px; font-weight:500;" class="st6">Відділ</text>
    </g>


    </svg>