<svg version="1.1" xmlns="http://www.w3.org/2000/svg" xmlns:xlink="http://www.w3.org/1999/xlink" x="0px" y="0px" viewBox="0 0 2002.2 670.2" style="enable-background:new 0 0 2002.2 590.2;" xml:space="preserve">
<style type="text/css">
	.st0{fill:none;stroke:#000000;stroke-width:1.5;stroke-miterlimit:10;}
	.st1{fill:none;stroke:#1D1D1B;stroke-width:1.5;stroke-miterlimit:10;}
    .st2{fill: black; font-size:14px; font-family:'FranklinGothic-Medium';}
    .st3{fill:#1D1D1B; font-size:12px;font-weight:700;}
    .st5{fill: black; font-size:15px; font-family:'Lemon/Milk(RUS BY LYAJKA) Regular';}
	.st6{fill:#E5E5E5;stroke:#000000;stroke-miterlimit:10;}
	.st7{opacity:0.67;fill:none;stroke:#1D1D1B;stroke-width:0.75;stroke-miterlimit:10;}
	.st8{fill:none;stroke:#DD001D;stroke-width:0.75;stroke-miterlimit:10;}
    .st8{opacity: 0.3;fill:white;stroke:rgb(68, 68, 68); stroke-width:0.75;stroke-miterlimit:10;}
    .st8:hover {
        fill:rgb(255, 0, 0);
    } 
    .st9{fill:#E00732;}
    .st10{fill:#CE0938;}
    .st11{fill:#FFFFFF;}
    .st12{opacity: 0.7;fill:rgb(250, 72, 66);stroke:rgb(68, 68, 68); stroke-width:0.75;stroke-miterlimit:10;}
    .st12:hover { fill:rgb(255, 45, 37);  }
    .st13{opacity: 0.7;fill:rgb(250, 66, 112);stroke:rgb(68, 68, 68); stroke-width:0.75;stroke-miterlimit:10;}
    .st13:hover { fill:rgb(250, 25, 81)  }
</style>
<g id="Слой_1">
	<polyline class="st0" points="1706.1,379.8 1649.7,379.8 1640.9,356.6 	"></polyline>
	<polyline class="st0" points="1915.5,228.7 1926.2,200.3 1957.8,200.3 1957.8,379.8 1905.1,379.8 1894.9,352.6 	"></polyline>
	<polyline class="st0" points="1876.3,379.5 1829.1,379.5 1725.2,379.5 1713.9,353.8 	"></polyline>
	<polyline class="st0" points="1630.9,379.5 1487.5,379.5 1476,353 	"></polyline>
	<polyline class="st1" points="1467.8,379.5 1402.2,379.5 1390.7,353 	"></polyline>
	<polyline class="st1" points="1382.7,379.6 1351.3,379.6 1339.8,353 	"></polyline>
	<polyline class="st1" points="1329.3,379.6 1288.3,379.6 1277.4,352.9 	"></polyline>
	<polyline class="st1" points="1268.8,379.6 1171.2,379.6 1160.4,352.7 	"></polyline>
	<polyline class="st1" points="1148.2,379.6 1093.7,379.6 1083.1,352.7 	"></polyline>
	<polyline class="st1" points="1074.1,379.6 1021.7,379.7 1010.2,352.7 	"></polyline>
	<polyline class="st1" points="996.3,379.7 927.5,379.7 916.8,352.8 	"></polyline>
	<polyline class="st1" points="909,379.7 819.5,379.7 808.8,352.8 	"></polyline>
	<polyline class="st1" points="798.6,379.7 741.9,379.7 731.2,352.8 	"></polyline>
	<polyline class="st1" points="725,379.7 676.7,379.7 666,352.8 	"></polyline>
	<polyline class="st1" points="653.8,379.7 639.3,379.7 640.9,555.3 366.3,555.3 366.3,379.8 331.6,379.8 320.2,353.1 	"></polyline>
	<polyline class="st1" points="305.2,379.8 172.2,379.8 161.2,353 	"></polyline>
	<polyline class="st1" points="149.5,379.8 94.1,379.8 83.1,353 	"></polyline>
	<polyline class="st0" points="77,200.3 38.1,200.3 38.1,379.8 72.2,379.8 	"></polyline>
	<polyline class="st0" points="231.2,200.3 131.3,200.3 120.2,227.1 	"></polyline>
	<polyline class="st0" points="324.6,200.3 256.8,200.3 245.8,226.4 	"></polyline>
	<polyline class="st0" points="476,200.3 349,200.3 337.7,227.1 	"></polyline>
	<line class="st1" x1="668" y1="200.3" x2="522" y2="200.3"></line>
	<polyline class="st1" points="809.3,200.3 725.8,200.3 711.2,227.1 	"></polyline>
	<polyline class="st1" points="903.7,200.3 867.7,200.3 855.9,227.1 	"></polyline>
	<polyline class="st1" points="1067.3,200.3 962.4,200.3 946.9,226.4 	"></polyline>
	<polyline class="st0" points="1191,200.3 1172.7,200.3 1161.5,226.4 	"></polyline>
	<polyline class="st0" points="1470.2,200.3 1367.3,200.3 1356.1,226.4 	"></polyline>
	<polyline class="st0" points="1149,200.3 1125.9,200.3 1114.7,226.4 	"></polyline>
	<polyline class="st0" points="1517.5,200.3 1489.7,200.3 1478.7,226.3 	"></polyline>
	<polyline class="st0" points="1691.4,200.3 1538.8,200.3 1527.2,227.1 	"></polyline>
	<polyline class="st0" points="1792.4,200.3 1719.7,200.3 1708.8,227.1 	"></polyline>
	<polyline class="st0" points="1902.9,200.3 1828.6,200.3 1817.3,227.1 	"></polyline>
    <rect x="360.5" y="402.9" class="st6" width="10.9" height="64"></rect>
	<rect x="360.5" y="473.2" class="st6" width="10.9" height="64"></rect>
    <g>
    <rect x="200.7" y="25.1" class="st8" width="94.8" height="175.2" id="d4"></rect>
	<text transform="matrix(1 0 0 1 233.1559 190.16)" class="st5">704</text>
    </g>
    <g>
    <rect x="295.5" y="25.1" class="st13" width="80.9" height="175.2" id="d6"></rect>
	<text transform="matrix(1 0 0 1 319.683 190.16)" class="st5">706</text>
    </g>
	<g>
    <rect x="634.1" y="25.1" class="st12" width="143.6" height="175.2" id="d8"></rect>
    <text transform="matrix(1 0 0 1 685.2358 190.2587)" class="st5">708</text>
    </g>
    <g>
        <polyline class="st1" points="1561.7,406.6 1551.2,379.8 1540,379.8 1540,555.3 1610.4,555.3 1610.4,379.8 1599.6,379.8 
            1589.1,406.6 		"></polyline>
        <line class="st1" x1="1556.4" y1="425.6" x2="1593.7" y2="425.6"></line>
        <line class="st1" x1="1556.4" y1="439.5" x2="1593.7" y2="439.5"></line>
        <line class="st1" x1="1556.4" y1="453.3" x2="1593.7" y2="453.3"></line>
        <line class="st1" x1="1556.4" y1="467.1" x2="1593.7" y2="467.1"></line>
        <line class="st1" x1="1556.4" y1="480.9" x2="1593.7" y2="480.9"></line>
        <line class="st1" x1="1556.4" y1="494.8" x2="1593.7" y2="494.8"></line>
        <line class="st1" x1="1556.4" y1="508.6" x2="1593.7" y2="508.6"></line>
    </g>
    <g>
        <polyline class="st1" points="510.5,173.5 522,200.3 534.4,200.3 534.4,80.5 464,80.5 464,200.3 476,200.3 487.5,173.5 		"></polyline>
        <line class="st1" x1="482.8" y1="92.2" x2="517.2" y2="92.2"></line>
        <line class="st1" x1="482.8" y1="103.8" x2="517.2" y2="103.8"></line>
        <line class="st1" x1="482.8" y1="115.4" x2="517.2" y2="115.4"></line>
        <line class="st1" x1="482.8" y1="126.9" x2="517.2" y2="126.9"></line>
        <line class="st1" x1="482.8" y1="138.5" x2="517.2" y2="138.5"></line>
        <line class="st1" x1="482.8" y1="150.1" x2="517.2" y2="150.1"></line>
        <line class="st1" x1="482.8" y1="161.7" x2="517.2" y2="161.7"></line>
    </g>
	<rect x="38.1" y="25.1" class="st1" width="1919.6" height="530.2"></rect>
	<path class="st7" d="M1777.9,200.3"></path>
	<path class="st7" d="M1847.1,200.3"></path>
	<rect x="1191" y="25.1" class="st8" width="71.1" height="175.2"></rect>
	<line class="st0" x1="1262.1" y1="200.3" x2="1347.5" y2="200.3"></line>
</g>
<g id="Слой_2">
	<g>
        <rect x="38.1" y="380.1" class="st8" width="96.7" height="175.2" id="d1"></rect>
		<text transform="matrix(1 0 0 1 72.1558 397.107)" class="st5">701</text>
		<text transform="matrix(1 0 0 1 71.6112 548.5195)" class="st2">17.1</text>
	</g>
	<g>
        <rect x="134.8" y="380.1" class="st8" width="150.6" height="175.5" id="d3"></rect>
		<text transform="matrix(1 0 0 1 149.4764 399.4054)" class="st5">703</text>
		<text transform="matrix(1 0 0 1 199.6573 548.5195)" class="st2">47.8</text>
	</g>
	<g>
        <rect x="285.4" y="380.1" class="st8" width="80.9" height="175.2" id="d5"></rect>
		<text transform="matrix(1 0 0 1 308.4341 399.4054)" class="st5">705</text>
		<text transform="matrix(1 0 0 1 316.0575 548.5195)" class="st2">15.5</text>
	</g>
	<g>
        <rect x="38.1" y="25.1" class="st12" width="162.5" height="175.2" id="d2"></rect>
		<text transform="matrix(1 0 0 1 93.1502 189.9037)" class="st5">702</text>
		<text transform="matrix(1 0 0 1 102.9016 39.9152)" class="st2">51.7</text>
	</g>
	<text transform="matrix(1 0 0 1 235.3184 39.9152)" class="st2">32.7</text>
	<text transform="matrix(1 0 0 1 695.1923 39.9152)" class="st2">49.2</text>
	<g>
        <rect x="870.3" y="25.1" class="st12" width="147.5" height="175.2" id="d12"></rect>
		<text transform="matrix(1 0 0 1 911.1111 190.2587)" class="st5">712</text>
		<text transform="matrix(1 0 0 1 933.6232 39.9152)" class="st2">49.8</text>
	</g>
	<g>
        <rect x="777.1" y="25.1" class="st8" width="93.2" height="175.2" id="d10"></rect>
        <text transform="matrix(1 0 0 1 817.2403 190.2587)" class="st5">710</text>
		<text transform="matrix(1 0 0 1 815.7451 39.9152)" class="st2">16.2</text>
	</g>
	<text transform="matrix(1 0 0 1 325.4397 39.9152)" class="st2">15.6</text>
	<g>
        <rect x="639.3" y="379.7" class="st8" width="60.3" height="175.6" id="dwc"></rect>
		<text transform="matrix(1 0 0 1 659.586 398.7562)" class="st5">WC</text>
		<text transform="matrix(1 0 0 1 663.933 548.5195)" class="st2">7.8</text>
	</g>
	<g>
        <rect x="699.5" y="379.7" class="st8" width="70.3" height="175.6" id="d7"></rect>
		<text transform="matrix(1 0 0 1 723.0333 399.4054)" class="st5">707</text>
		<text transform="matrix(1 0 0 1 725.8903 548.5195)" class="st2">16.1</text>
	</g>
	<g>
        <rect x="769.8" y="379.7" class="st8" width="72.3" height="175.6" id="d9"></rect>
		<text transform="matrix(1 0 0 1 797.0309 398.8375)" class="st5">709</text>
		<text transform="matrix(1 0 0 1 798.3002 548.5195)" class="st2">16.1</text>
	</g>
	<g>
        <rect x="842" y="379.7" class="st13" width="121.5" height="175.6" id="d11"></rect>
		<text transform="matrix(1 0 0 1 909.0105 398.9286)" class="st5">711</text>
		<text transform="matrix(1 0 0 1 900.1338 548.5195)" class="st2">49.8</text>
	</g>
	<g>
        <rect x="963.5" y="379.7" class="st8" width="88" height="175.6" id="d11a"></rect>
		<text transform="matrix(1 0 0 1 996.2707 399.0546)" class="st5">711A</text>
		<text transform="matrix(1 0 0 1 999.6816 548.5195)" class="st2">18.8</text>
	</g>
	<g>
        <rect x="1051.5" y="379.7" class="st8" width="63.1" height="175.6" id="d13"></rect>
		<text transform="matrix(1 0 0 1 1074.0564 398.7562)" class="st5">713</text>
		<text transform="matrix(1 0 0 1 1075.3257 548.5195)" class="st2">13.1</text>
	</g>
	<text transform="matrix(1 0 0 1 1172.9316 548.5195)" class="st2">50.3</text>
	<text transform="matrix(1 0 0 1 1268.0039 548.5195)" class="st2">16.2</text>
	<text transform="matrix(1 0 0 1 1326.2932 548.5195)" class="st2">15.4</text>
	<text transform="matrix(1 0 0 1 1385.8384 548.5195)" class="st2">15.9</text>
	<text transform="matrix(1 0 0 1 1471.2003 548.5195)" class="st2">49.3</text>
	<g>
		<rect x="1610.4" y="379.8" class="st8" width="60.9" height="175.5" id="dwc"></rect>
		<text transform="matrix(1 0 0 1 1632.0222 398.7562)" class="st5">WC</text>
		<text transform="matrix(1 0 0 1 1633.5055 548.5195)" class="st2">7.8</text>
	</g>
	<g>
        <rect x="1671.4" y="379.8" class="st8" width="85" height="175.5" id="d23"></rect>
		<text transform="matrix(1 0 0 1 1706.0768 398.812)" class="st5">723</text>
		<text transform="matrix(1 0 0 1 1703.4027 548.5195)" class="st2">15.9</text>
	</g>
	<g>
        <rect x="1756.4" y="379.5" class="st13" width="201.4" height="175.8" id="d25"></rect>
		<text transform="matrix(1 0 0 1 1866.3413 398.812)" class="st5">725</text>
		<text transform="matrix(1 0 0 1 1846.6113 548.5195)" class="st2">51.6</text>
	</g>
    <g>
        <rect x="1115.4" y="379.7" class="st12" width="133" height="174.9" id="d15"></rect>
        <text transform="matrix(1 0 0 1 1150.8007 398.7562)" class="st5">715</text>
    </g>

   <g>
        <rect x="1248.4" y="379.5" class="st12" width="60.1" height="175" id="d17"></rect>
        <text transform="matrix(1 0 0 1 1268.8472 398.7562)" class="st5">717</text>
    </g>
    <g>
        <rect x="1308.5" y="379.5" class="st8" width="56.5" height="175" id="d17a"></rect>
        <text transform="matrix(1 0 0 1 1325.0243 398.7562)" class="st5">717A</text>
    </g>
    <g>
        <rect x="1365" y="379.5" class="st12" width="62.9" height="175" id="d19"></rect>
        <text transform="matrix(1 0 0 1 1384.7042 398.7562)" class="st5">719</text>
    </g>
    <g>
        <rect x="1427.9" y="379.8" class="st8" width="111.5" height="175.5" id="d21"></rect>
	    <text transform="matrix(1 0 0 1 1469.2623 398.7562)" class="st5">721</text>
    </g>
	<g>
        <rect x="1017.9" y="25.1" class="st8" width="100.5" height="175.2" id="d12a"></rect>
		<text transform="matrix(1 0 0 1 1059.5598 190.2583)" class="st5">712A</text>
		<text transform="matrix(1 0 0 1 1057.7727 39.9152)" class="st2">18.6</text>
	</g>
	<g>
        <rect x="1118.6" y="25.1" class="st8" width="72.3" height="175.2" id="d14"></rect>
		<text transform="matrix(1 0 0 1 1149.8187 190.2583)" class="st5">714</text>
		<text transform="matrix(1 0 0 1 1154.2841 39.9152)" class="st2">13.7</text>
	</g>
	<g>
        <rect x="1262.1" y="25.1" class="st12" width="160.2" height="175.2" id="d16"></rect>
		<text transform="matrix(1 0 0 1 1345.5569 190.2587)" class="st5">716</text>
		<text transform="matrix(1 0 0 1 1331.7504 39.9152)" class="st2">49.9</text>
	</g>
	<g>
        <rect x="1422.3" y="25.1" class="st8" width="73.5" height="175.2" id="d18"></rect>
		<text transform="matrix(1 0 0 1 1468.1917 190.2587)" class="st5">718</text>
		<text transform="matrix(1 0 0 1 1448.6 39.9152)" class="st2">16.1</text>
	</g>
	<g>
        <rect x="1876.3" y="25.1" class="st12" width="81.5" height="175.2" id="d26"></rect>
		<text transform="matrix(1 0 0 1 1902.91 190.2587)" class="st5">726</text>
		<text transform="matrix(1 0 0 1 1908.2365 39.9152)" class="st2">18.0</text>
	</g>
	<g>
        <rect x="1751.1" y="25.1" class="st12" width="125.8" height="175.2" id="d24"></rect>
		<text transform="matrix(1 0 0 1 1804.6411 190.2587)" class="st5">724</text>
		<text transform="matrix(1 0 0 1 1798.6302 39.9152)" class="st2">44.2</text>
	</g>
	<g>
        <rect x="1661.9" y="25.1" class="st8" width="89.2" height="175.2" id="d22"></rect>
		<text transform="matrix(1 0 0 1 1694.5702 190.2583)" class="st5">722</text>
		<text transform="matrix(1 0 0 1 1696.7327 39.9152)" class="st2">33.4</text>
	</g>
	<g>
        <rect x="1496" y="25.1" class="st12" width="165.9" height="175.2" id="d20"></rect>
		<text transform="matrix(1 0 0 1 1515.7236 190.2587)" class="st5">720</text>
		<text transform="matrix(1 0 0 1 1568.4827 39.9152)" class="st2">50.2</text>
	</g>
</g>
<circle class="st9" cx="711" cy="104.2" r="29.2"></circle>
            <path class="st10" d="M740.2,104.7c0,0-0.1-0.1-0.1-0.1c-3.9-3.9-7.7-7.7-11.6-11.6c-0.3-0.3-0.7-0.5-1.1-0.5c-5.4,0-10.9,0-16.3,0
                s-10.9,0-16.3,0c-0.1,0-0.2,0-0.4,0c-0.4,0.1-0.7,0.4-0.8,0.7c0,0.1,0,0.3,0,0.4c0,7.1,0,14.2,0,21.2c0,0.4,0.1,0.7,0.4,1
                c2.5,2.5,5,5,7.4,7.4c3.3,3.3,6.6,6.6,9.9,9.9c0,0,0.1,0.1,0.2,0.1C727.2,133.2,739.9,120.4,740.2,104.7z"></path>
            <g>
                <path class="st11" d="M694.5,116h33.1c0.5,0,1-0.4,1-1V93.4c0-0.5-0.4-1-1-1h-33.1c-0.5,0-1,0.4-1,1V115
                    C693.5,115.6,693.9,116,694.5,116z M695.4,112.5l10.5-10.5l12.1,12.1h-22.5V112.5z M720.7,114.1l-4.1-4.1l3.1-3.1l6.6,6.6
                    c0.1,0.1,0.1,0.1,0.2,0.2v0.4L720.7,114.1L720.7,114.1z M726.5,94.4V111l-6.2-6.2c-0.4-0.4-1-0.4-1.4,0l-3.7,3.7l-8.6-8.6
                    c-0.4-0.4-1-0.4-1.4,0l-9.8,9.8V94.4H726.5z"></path>
                <path class="st11" d="M715.2,103.7c2,0,3.7-1.7,3.7-3.7c0-2-1.7-3.7-3.7-3.7c-2,0-3.7,1.7-3.7,3.7
                    C711.5,102,713.1,103.7,715.2,103.7z M715.2,98.2c1,0,1.7,0.8,1.7,1.7c0,1-0.8,1.7-1.7,1.7s-1.7-0.8-1.7-1.7
                    C713.4,99,714.2,98.2,715.2,98.2z"></path>
            </g>
            <g id="Слой_3">
                <text transform="matrix(1 0 0 1 692.3558 65.8483)" class="st3">Лаб.</text>
                <text transform="matrix(1 0 0 1 930.567 65.8483)" class="st3">Лаб.</text>
                <text transform="matrix(1 0 0 1 1328.7056 65.8483)" class="st3">Лаб.</text>
                <text transform="matrix(1 0 0 1 1565.3203 65.8483)" class="st3">Лаб.</text>
                <text transform="matrix(1 0 0 1 1800.1625 65.8483)" class="st3">Лаб.</text>
                <text transform="matrix(1 0 0 1 1907.4507 65.8483)" class="st3">Лаб.</text>
                <text transform="matrix(1 0 0 1 104.8948 65.8483)" class="st3">Лаб.</text>
                <text transform="matrix(1 0 0 1 879.0591 524.0447)" class="st3">Навч. ауд.</text>
                <text transform="matrix(1 0 0 1 720.0591 524.0447)" class="st3">КМФТ</text>
                <text transform="matrix(1 0 0 1 1173.4738 524.0447)" class="st3">Лаб.</text>
                <text transform="matrix(1 0 0 1 1269.5002 524.0447)" class="st3">Лаб.</text>
                <text transform="matrix(1 0 0 1 1386.7048 524.0447)" class="st3">Лаб.</text>
                <text transform="matrix(1 0 0 1 1829.5768 524.0447)" class="st3">Навч. ауд.</text>
                <text transform="matrix(1 0 0 1 311.8868 65.8483)" class="st3">Навч. ауд.</text>
            </g>
            <g id="Слой_6">
                <polyline class="st1" points="52.9,602.9 56.6,611.4 60.5,611.4 60.5,573.3 38.1,573.3 38.1,611.4 41.9,611.4 45.6,602.9 		"></polyline>
                <rect x="38.1" y="621.1" class="st6" width="11" height="44.9"></rect>
                <text transform="matrix(1 0 0 1 68.8309 595.8264)" style="font-size: 15px; font-weight:500;" class="st3">Сходи</text>
                <text transform="matrix(1 0 0 1 68.8309 647.1559)" style="font-size: 15px; font-weight:500;" class="st3">Ліфт</text>
            </g>
</svg>