<svg version="1.1" xmlns="http://www.w3.org/2000/svg" xmlns:xlink="http://www.w3.org/1999/xlink" x="0px" y="0px" viewBox="0 0 2002.2 670.2" style="enable-background:new 0 0 2002.2 590.2;" xml:space="preserve">
            <style type="text/css">
                .st1{fill:none;stroke:#1D1D1B;stroke-width:1.5;stroke-miterlimit:10;}
                .st2{fill:#E5E5E5;stroke:#000000;stroke-miterlimit:10;}
                .st3{fill:#1D1D1B; font-size:12px;font-weight:700;}
                .st5{fill: black; font-size:15px; font-family:'Lemon/Milk(RUS BY LYAJKA) Regular';}
                .st6{fill: black; font-size:14px; font-family:'FranklinGothic-Medium';}
                .st7{opacity: 0.3;fill:white;stroke:rgb(68, 68, 68); stroke-width:0.75;stroke-miterlimit:10;}
                .st7:hover {fill:rgb(255, 238, 0);                }
                .st8{opacity: 0.7;fill:rgb(19, 214, 221);stroke:rgb(68, 68, 68); stroke-width:0.75;stroke-miterlimit:10;}
                .st8:hover { fill:rgb(0, 247, 255)  }
                .st9{opacity: 0.7;fill:rgb(12, 155, 180);stroke:rgb(68, 68, 68); stroke-width:0.75;stroke-miterlimit:10;}
                .st9:hover { fill:rgb(2, 193, 226)  }
                .st9{opacity: 0.7;fill:rgb(12, 155, 180);stroke:rgb(68, 68, 68); stroke-width:0.75;stroke-miterlimit:10;}
                .st9:hover { fill:rgb(2, 193, 226)  }
                .st10{opacity: 0.7;fill:rgb(65, 136, 230);stroke:rgb(68, 68, 68); stroke-width:0.75;stroke-miterlimit:10;}
                .st10:hover { fill:rgb(110, 171, 250) }
            </style>
            <g id="Слой_1">
                <g>
                    <polyline class="st1" points="1563.9,406.6 1552.4,379.8 1540,379.8 1540,555.3 1610.4,555.3 1610.4,379.8 1598.4,379.8 
                        1586.9,406.6 		"></polyline>
                    <line class="st1" x1="1554.6" y1="421.9" x2="1595.8" y2="421.9"></line>
                    <line class="st1" x1="1554.6" y1="434.5" x2="1595.8" y2="434.5"></line>
                    <line class="st1" x1="1554.6" y1="447.1" x2="1595.8" y2="447.1"></line>
                    <line class="st1" x1="1554.6" y1="459.7" x2="1595.8" y2="459.7"></line>
                    <line class="st1" x1="1554.6" y1="472.3" x2="1595.8" y2="472.3"></line>
                    <line class="st1" x1="1554.6" y1="484.9" x2="1595.8" y2="484.9"></line>
                    <line class="st1" x1="1554.6" y1="497.5" x2="1595.8" y2="497.5"></line>
                    <line class="st1" x1="1554.6" y1="510.1" x2="1595.8" y2="510.1"></line>
                    <line class="st1" x1="1554.6" y1="522.7" x2="1595.8" y2="522.7"></line>
                    <line class="st1" x1="1554.6" y1="535.3" x2="1595.8" y2="535.3"></line>
                </g>
                <g>
                    <polyline class="st1" points="510.5,173.5 522,200.3 534.4,200.3 534.4,80.5 464,80.5 464,200.3 476,200.3 487.5,173.5 		"></polyline>
                    <line class="st1" x1="477.7" y1="92.2" x2="518.9" y2="92.2"></line>
                    <line class="st1" x1="477.7" y1="102.8" x2="518.9" y2="102.8"></line>
                    <line class="st1" x1="477.7" y1="113.3" x2="518.9" y2="113.3"></line>
                    <line class="st1" x1="477.7" y1="123.9" x2="518.9" y2="123.9"></line>
                    <line class="st1" x1="477.7" y1="134.4" x2="518.9" y2="134.4"></line>
                    <line class="st1" x1="477.7" y1="145" x2="518.9" y2="145"></line>
                    <line class="st1" x1="477.7" y1="155.5" x2="518.9" y2="155.5"></line>
                </g>
                <polyline class="st1" points="1540,379.8 1450.1,379.5 1438.7,353 	"></polyline>
                <polyline class="st1" points="1421.2,379.6 1277,379.6 1266,352.9 	"></polyline>
                <polyline class="st1" points="1244,379.6 1168.4,379.6 1157.4,352.9 	"></polyline>
                <polyline class="st1" points="1149.3,379.6 1061.5,379.6 1050.7,352.7 	"></polyline>
                <polyline class="st1" points="1040.8,379.6 981.6,379.6 971,352.7 	"></polyline>
                <polyline class="st1" points="961.7,379.7 844.2,379.7 833.5,352.8 	"></polyline>
                <polyline class="st1" points="823.2,379.7 765.8,379.7 755.1,352.8 	"></polyline>
                <polyline class="st1" points="746.7,379.7 676.7,379.7 666,352.8 	"></polyline>
                <polyline class="st1" points="653.8,379.7 639.3,379.7 640.9,555.3 366.3,555.3 366.3,379.8 	"></polyline>
                <polyline class="st1" points="366.3,379.8 343.3,379.8 332.3,353 	"></polyline>
                <polyline class="st1" points="205.2,379.8 130.6,379.8 119.6,353 	"></polyline>
                <polyline class="st1" points="316.4,379.8 227.9,379.8 216.9,353 	"></polyline>
                <polyline class="st1" points="208.4,200.3 38.1,200.3 38.1,379.8 111.4,379.8 	"></polyline>
                <polyline class="st1" points="318.3,200.3 242.2,200.3 231.3,226.4 	"></polyline>
                <polyline class="st1" points="476,200.3 351.7,200.3 340.5,227.1 	"></polyline>
                <line class="st1" x1="699.6" y1="200.3" x2="522" y2="200.3"></line>
                <polyline class="st1" points="909.6,200.3 836.6,200.3 822,227.1 	"></polyline>
                <polyline class="st1" points="1050.2,200.3 930.4,200.3 918.6,227.1 	"></polyline>
                <polyline class="st1" points="1144.2,200.3 1075.4,200.3 1059.9,226.4 	"></polyline>
                <polyline class="st1" points="1219.8,200.3 1179.7,200.3 1168.5,226.4 	"></polyline>
                <polyline class="st1" points="1389.1,200.3 1248.1,200.3 1236.6,227.1 	"></polyline>
                <polyline class="st1" points="1536.9,200.3 1409.3,200.7 1398.3,226.7 	"></polyline>
                <polyline class="st1" points="1643.7,200.3 1563.8,200.3 1552.1,227.1 	"></polyline>
                <polyline class="st1" points="1885.6,200.3 1675.6,200.3 1664.7,227.1 	"></polyline>
                <path class="st1" d="M366.3,379.8"></path>
                <rect x="360.5" y="402.9" class="st2" width="10.9" height="64"></rect>
                <rect x="360.5" y="473.2" class="st2" width="10.9" height="64"></rect>
                <rect x="38.1" y="25.1" class="st1" width="1919.6" height="530.2"></rect>
                <path class="st1" d="M1777.9,200.3"></path>
                <path class="st1" d="M1847.1,200.3"></path>
                <g>
                    <rect x="639.3" y="379.7" class="st7" width="93" height="175.6" id="dwc"></rect>
                    <text transform="matrix(1 0 0 1 659.586 398.7562)" class="st5 ">WC</text>
                </g>
                <g>
                    <rect x="732.3" y="379.7" class="st8" width="76.2" height="175.6" id="d5"></rect>
                    <text transform="matrix(1 0 0 1 744.8059 399.4054)" class="st5 ">205</text>
                </g>
                <g>
                    <rect x="808.5" y="379.7" class="st8" width="136.5" height="175.6" id="d7"></rect>
                    <text transform="matrix(1 0 0 1 823.2468 398.8375)" class="st5 ">207 </text>
                </g>
                <g>
                    <rect x="944.7" y="379.7" class="st8" width="84.1" height="175.6" id="d9"></rect>
                    <text transform="matrix(1 0 0 1 961.6738 398.9286)" class="st5 ">209</text>
                </g>
                <g>
                    <rect x="281.3" y="380.1" class="st7" width="84.6" height="175.5" id="d3a"></rect>
                    <text transform="matrix(1 0 0 1 316.3938 399.4054)" class="st5 ">203A</text>
                </g>
                <g>
                    <rect x="38.1" y="379.6" class="st7" width="132.8" height="175.7" id="d1"></rect>
                    <text transform="matrix(1 0 0 1 111.4054 397.107)" class="st5 ">201</text>
                </g>
                <g>
                    <rect x="171" y="379.6" class="st10" width="110.3" height="175.7" id="d3"></rect>
                    <text transform="matrix(1 0 0 1 205.1926 399.4054)" class="st5 ">203</text>
                </g>
                <g>
                    <rect x="262.5" y="25.1" class="st7" width="103.8" height="175.2" id="d4"></rect>
                    <text transform="matrix(1 0 0 1 323.1908 190.16)" class="st5">204</text>
                </g>
                <g>
                    <rect x="38.1" y="25.1" class="st8" width="224.4" height="175.2" id="d2"></rect>
                    <text transform="matrix(1 0 0 1 211.4778 190.16)" class="st5">202</text>
                </g>
                <polyline class="st1" points="817.8,200.3 721.1,200.3 706.5,227.1 	"></polyline>
                <line class="st1" x1="1610.4" y1="379.8" x2="1639.6" y2="379.8"></line>
            </g>
            <g id="Слой_4">
                <text transform="matrix(1 0 0 1 86.5458 548.9386)" class="st6">33.4</text>
                <text transform="matrix(1 0 0 1 218.2065 548.9386)" class="st6">31.4</text>
                <text transform="matrix(1 0 0 1 321.0995 548.9386)" class="st6">15.7</text>
                <text transform="matrix(1 0 0 1 660.8553 548.9386)" class="st6">17.9</text>
                <text transform="matrix(1 0 0 1 757.5482 548.9386)" class="st6">15.9</text>
                <text transform="matrix(1 0 0 1 870.2776 548.9386)" class="st6">52.0</text>
                <text transform="matrix(1 0 0 1 976.2859 548.9386)" class="st6">30.4</text>
                <g>
                    <rect x="1028.8" y="379.7" class="st8" width="89.4" height="175.6" id="d11"></rect>
                    <text transform="matrix(1 0 0 1 1038.9659 398.7562)" class="st5">211</text>
                    <text transform="matrix(1 0 0 1 1063.0969 548.9376)" class="st6">32.4</text>
                </g>
                <g>
                    <rect x="1118.4" y="379.7" class="st8" width="89" height="175.6" id="d13"></rect>
                    <text transform="matrix(1 0 0 1 1149.292 398.7562)" class="st5">213</text>
                    <text transform="matrix(1 0 0 1 1150.561 548.9386)" class="st6">32.0</text>
                </g>
                <g>
                    <rect x="1207.4" y="379.5" class="st8" width="180.3" height="175.8" id="d15"></rect>
                    <text transform="matrix(1 0 0 1 1245.6395 399.108)" class="st5">215</text>
                    <text transform="matrix(1 0 0 1 1281.0861 548.9376)" class="st6">66.3</text>
                </g>
                <g>
                    <rect x="1387.6" y="379.8" class="st8" width="152.3" height="175.5" id="d17"></rect>
                    <text transform="matrix(1 0 0 1 1429.9666 398.7562)" class="st5">217</text>
                    <text transform="matrix(1 0 0 1 1452.6825 548.9386)" class="st6">51.7</text>
                </g>
                <g>
                    <rect x="1610.4" y="379.8" class="st7" width="69.2" height="175.5" id="dwc"></rect>
                    <text transform="matrix(1 0 0 1 1638.3417 398.7562)" class="st5">WC</text>
                    <text transform="matrix(1 0 0 1 1642.2369 548.9376)" class="st6">7.9</text>
                </g>
                <text transform="matrix(1 0 0 1 139.8437 40.1944)" class="st6">68.3</text>
                <text transform="matrix(1 0 0 1 299.3691 40.1944)" class="st6">30.7</text>
                <g>
                    <rect x="634.1" y="25.1" class="st7" width="101.6" height="175.2" id="d6"></rect>
                    <text transform="matrix(1 0 0 1 700.6641 190.2587)" class="st5">206</text>
                    <text transform="matrix(1 0 0 1 681.1362 40.1944)" class="st6">31.6</text>
                </g>
                <g>
                    <rect x="735.7" y="25.1" class="st7" width="108.9" height="175.2" id="d8"></rect>
                    <text transform="matrix(1 0 0 1 810.6608 190.2587)" class="st5">208</text>
                    <text transform="matrix(1 0 0 1 782.2273 40.1944)" class="st6">32.3</text>
                </g>
                <g>
                    <rect x="844.4" y="25.1" class="st8" width="130.3" height="175.2" id="d10"></rect>
                    <text transform="matrix(1 0 0 1 908.7232 190.2587)" class="st5">210</text>
                    <text transform="matrix(1 0 0 1 898.2476 40.1944)" class="st6">49.3</text>
                </g>
                <g>
                    <rect x="974.1" y="25.1" class="st7" width="124.7" height="175.2" id="d12"></rect>
                    <text transform="matrix(1 0 0 1 1050.16 190.2587)" class="st5">212</text>
                    <text transform="matrix(1 0 0 1 1022.0532 40.1944)" class="st6">49.0</text>
                </g>
                <g>
                    <rect x="1098.8" y="25.1" class="st7" width="110.3" height="175.2" id="d14"></rect>
                    <text transform="matrix(1 0 0 1 1144.235 190.2583)" class="st5">214</text>
                    <text transform="matrix(1 0 0 1 1149.1195 40.1944)" class="st6">33.7</text>
                </g>
                <g>
                    <rect x="1209.1" y="25.1" class="st8" width="100.3" height="175.2" id="d16"></rect>
                    <text transform="matrix(1 0 0 1 1226.735 190.2583)" class="st5">216</text>
                    <text transform="matrix(1 0 0 1 1248.7808 40.1944)" class="st6">31.8</text>
                </g>
                <g>
                    <rect x="1517" y="25.1" class="st8" width="101.1" height="175.2" id="d18a"></rect>
                    <text transform="matrix(1 0 0 1 1538.418 190.2583)" class="st5">218A</text>
                    <text transform="matrix(1 0 0 1 1547.3383 40.1944)" class="st6">16.9</text>
                </g>
                <g>
                    <rect x="1309.4" y="25.1" class="st9" width="207.6" height="175.2" id="d18"></rect>
                    <text transform="matrix(1 0 0 1 1389.0745 190.2587)" class="st5">218</text>
                    <text transform="matrix(1 0 0 1 1405.7395 40.1944)" class="st6">67.0</text>
                </g>
                <g>
                    <rect x="1618.1" y="25.1" class="st9" width="339.7" height="175.2" id="d20"></rect>
                    <text transform="matrix(1 0 0 1 1652.0389 190.2587)" class="st5">220</text>
                    <text transform="matrix(1 0 0 1 1890.8279 190.2587)" class="st5">220</text>
                    <text transform="matrix(1 0 0 1 1771.7783 40.1944)" class="st6">85.2</text>
                </g>
            </g>

            <line class="st1" x1="1872.6" y1="300.6" x2="1872.6" y2="379.1"></line>
	<polyline class="st1" points="1872.6,200.3 1872.6,279.8 1857.4,296.8 	"></polyline>
    <g>
    <rect x="1872.1" y="200.5" class="st8" width="85.7" height="179.3" id="d19"></rect>
	<text transform="matrix(1 0 0 1 1878.1729 292.7411)" class="st5">219</text>
    <text transform="matrix(1 0 0 1 1919.9802  284.8265)" class="st6">14.2</text>
    </g>
	<polyline class="st1" points="1957.8,200.3 1675.6,200.3 1664.7,227.1 	"></polyline>
	<rect x="1679.6" y="379.8" class="st7" width="53.2" height="175.5"></rect>
	<polyline class="st1" points="1698.8,379.5 1657.8,379.5 1646.7,353.7 	"></polyline>
	<polyline class="st1" points="1956.4,379.5 1714.4,379.5 1703.3,353.7 	"></polyline>

    <g id="Слой_5">
        <text transform="matrix(1 0 0 1 199.0436 469.4742)" class="st3">Комп. ауд.</text>
        <text transform="matrix(1 0 0 1 290.2554 111.6415)" class="st3">КППДПО</text>
        <text transform="matrix(1 0 0 1 660.2554 111.6415)" class="st3">КППДПО</text>
        <text transform="matrix(1 0 0 1 765.2554 111.6415)" class="st3">КТМДПО</text>
        <text transform="matrix(1 0 0 1 1130.2554 111.6415)" class="st3">КТМДПО</text>
        <text transform="matrix(1 0 0 1 123.2554 111.6415)" class="st3">Навч. ауд.</text>
        <text transform="matrix(1 0 0 1 882.5618 111.6415)" class="st3">Навч. ауд.</text>
        <text transform="matrix(1 0 0 1 1234.3916 111.6415)" class="st3">Навч. ауд.</text>
        <text transform="matrix(1 0 0 1 1387.2871 111.6415)" class="st3">Лекц. ауд.</text>
        <text transform="matrix(1 0 0 1 1543.1814 111.6415)" class="st3">Навч. ауд.</text>
        <text transform="matrix(1 0 0 1 1764.389 111.6415)" class="st3">Лекц. ауд.</text>
        <text transform="matrix(1 0 0 1 1887.389 320.6415)" class="st3">Навч. ауд.</text>
        <text transform="matrix(1 0 0 1 743.3284 469.4742)" class="st3">Навч. ауд.</text>
        <text transform="matrix(1 0 0 1 849.5275 469.4742)" class="st3">Навч. ауд.</text>
        <text transform="matrix(1 0 0 1 961.674 469.4742)" class="st3">Навч. ауд.</text>
        <text transform="matrix(1 0 0 1 1046.4598 469.4742)" class="st3">Навч. ауд.</text>&gt;
        <text transform="matrix(1 0 0 1 1135.8215 469.4742)" class="st3">Навч. ауд.</text>
        <text transform="matrix(1 0 0 1 1269.3534 469.4742)" class="st3">Навч. ауд.</text>
        <text transform="matrix(1 0 0 1 1439.9006 469.4742)" class="st3">Навч. ауд.</text>
        
    </g>
    <g id="Слой_6">
		<polyline class="st1" points="52.9,602.9 56.6,611.4 60.5,611.4 60.5,573.3 38.1,573.3 38.1,611.4 41.9,611.4 45.6,602.9 		"></polyline>
		<rect x="38.1" y="621.1" class="st2" width="11" height="44.9"></rect>
		<text transform="matrix(1 0 0 1 68.8309 595.8264)" style="font-size: 15px; font-weight:500;" class="st3">Сходи</text>
		<text transform="matrix(1 0 0 1 68.8309 647.1559)" style="font-size: 15px; font-weight:500;" class="st3">Ліфт</text>
	</g>
    </svg>