<svg version="1.1" xmlns="http://www.w3.org/2000/svg" xmlns:xlink="http://www.w3.org/1999/xlink" x="0px" y="0px" viewBox="0 0 2002.2 670.2" style="enable-background:new 0 0 2002.2 590.2;" xml:space="preserve">
            <style type="text/css">
                .st0{fill:none;stroke:#1D1D1B;stroke-width:1.5;stroke-miterlimit:10;}
                .st1{fill:#E5E5E5;stroke:#000000;stroke-miterlimit:10;}
                .st2{opacity:0.67;fill:none;stroke:#1D1D1B;stroke-width:0.75;stroke-miterlimit:10;}
                .st3{fill:#1D1D1B; font-size:12px;font-weight:700;}
                .st4{fill: black; font-size:15px; font-family:'Lemon/Milk(RUS BY LYAJKA) Regular';}
                .st5{fill: black; font-size:14px; font-family:'FranklinGothic-Medium';}
                .st6{opacity: 0.3;fill:white;stroke:rgb(68, 68, 68); stroke-width:0.75;stroke-miterlimit:10;}
                .st6:hover {
                    fill:rgb(255, 2, 57);
                }
                .st7{opacity: 0.7;fill:rgb(233, 60, 8);stroke:rgb(68, 68, 68); stroke-width:0.75;stroke-miterlimit:10;}
                .st7:hover {
                    fill:rgb(255, 62, 3);
                }
                .st8{opacity: 0.7;fill:rgb(250, 72, 66);stroke:rgb(68, 68, 68); stroke-width:0.75;stroke-miterlimit:10;}
                .st8:hover {
                    fill:rgb(255, 45, 37);
                }

            </style>
            <g id="Слой_1">
                <polyline class="st0" points="1900.6,228.7 1911.2,200.3 1957.8,200.3 1957.8,379.8 1887,379.8 1876.8,352.6 	"></polyline>
                <polyline class="st0" points="1693.9,379.5 1650.6,379.5 1639.5,353.7 	"></polyline>
                <polyline class="st0" points="1632.2,379.5 1462.8,379.5 1451.3,353 	"></polyline>
                <polyline class="st0" points="1441,379.6 1293.8,379.6 1282.8,352.9 	"></polyline>
                <polyline class="st0" points="1269.4,379.6 1182.3,379.6 1171.4,352.9 	"></polyline>
                <polyline class="st0" points="1163.1,379.6 1093.3,379.6 1082.5,352.7 	"></polyline>
                <polyline class="st0" points="1073.6,379.6 932.9,379.6 922.3,352.7 	"></polyline>
                <polyline class="st0" points="911.5,379.7 839.1,379.7 828.4,352.8 	"></polyline>
                <polyline class="st0" points="816.7,379.7 756.4,379.7 745.7,352.8 	"></polyline>
                <polyline class="st0" points="733,379.7 686.1,379.7 675.4,352.8 	"></polyline>
                <polyline class="st0" points="653.8,379.7 639.3,379.7 640.9,555.3 366.3,555.3 366.3,379.8 	"></polyline>
                <polyline class="st0" points="366.3,379.8 328.7,379.8 317.7,353 	"></polyline>
                <polyline class="st0" points="306.6,379.8 118.3,379.8 107.3,353 	"></polyline>
                <polyline class="st0" points="134.5,200.3 38.1,200.3 38.1,379.8 94.5,379.8 	"></polyline>
                <polyline class="st0" points="319.4,200.3 165.6,200.3 154.5,227.1 	"></polyline>
                <polyline class="st0" points="476,200.3 351.7,200.3 340.5,227.1 	"></polyline>
                <line class="st0" x1="678.9" y1="200.3" x2="522" y2="200.3"></line>
                <polyline class="st0" points="1143.3,200.3 962.5,200.3 950.8,227.1 	"></polyline>
                <polyline class="st0" points="1260.1,200.3 1170.9,200.3 1155.3,226.4 	"></polyline>
                <polyline class="st0" points="1380.2,200.3 1283.9,200.3 1272.7,226.4 	"></polyline>
                <polyline class="st0" points="1515.4,200.3 1405.5,200.3 1394,227.1 	"></polyline>
                <polyline class="st0" points="1673.2,200.3 1541.7,200.3 1530.1,227.1 	"></polyline>
                <polyline class="st0" points="1780.4,200.3 1700.9,200.3 1690,227.1 	"></polyline>
                <polyline class="st0" points="1888,200.3 1807.3,200.3 1795.9,227.1 	"></polyline>
                <path class="st0" d="M366.3,379.8"></path>
                <rect x="360.5" y="402.9" class="st1" width="10.9" height="64"></rect>
                <rect x="360.5" y="473.2" class="st1" width="10.9" height="64"></rect>
                <g>
                    <polyline class="st0" points="1561.7,406.6 1551.2,379.8 1540,379.8 1540,555.3 1610.4,555.3 1610.4,379.8 1599.6,379.8 
                        1589.1,406.6 		"></polyline>
                    <line class="st0" x1="1556.4" y1="425.6" x2="1593.7" y2="425.6"></line>
                    <line class="st0" x1="1556.4" y1="439.5" x2="1593.7" y2="439.5"></line>
                    <line class="st0" x1="1556.4" y1="453.3" x2="1593.7" y2="453.3"></line>
                    <line class="st0" x1="1556.4" y1="467.1" x2="1593.7" y2="467.1"></line>
                    <line class="st0" x1="1556.4" y1="480.9" x2="1593.7" y2="480.9"></line>
                    <line class="st0" x1="1556.4" y1="494.8" x2="1593.7" y2="494.8"></line>
                    <line class="st0" x1="1556.4" y1="508.6" x2="1593.7" y2="508.6"></line>
                </g>
                <g>
                    <polyline class="st0" points="510.5,173.5 522,200.3 534.4,200.3 534.4,80.5 464,80.5 464,200.3 476,200.3 487.5,173.5 		"></polyline>
                    <line class="st0" x1="482.8" y1="92.2" x2="517.2" y2="92.2"></line>
                    <line class="st0" x1="482.8" y1="103.8" x2="517.2" y2="103.8"></line>
                    <line class="st0" x1="482.8" y1="115.4" x2="517.2" y2="115.4"></line>
                    <line class="st0" x1="482.8" y1="126.9" x2="517.2" y2="126.9"></line>
                    <line class="st0" x1="482.8" y1="138.5" x2="517.2" y2="138.5"></line>
                    <line class="st0" x1="482.8" y1="150.1" x2="517.2" y2="150.1"></line>
                    <line class="st0" x1="482.8" y1="161.7" x2="517.2" y2="161.7"></line>
                </g>
                <rect x="38.1" y="25.1" class="st0" width="1919.6" height="530.2"></rect>
                <path class="st2" d="M1777.9,200.3"></path>
                <path class="st2" d="M1847.1,200.3"></path>
                <g>
                    <rect x="1352.7" y="25.1" class="st7" width="302.6" height="175.2" id="d18"></rect>
                    <text transform="matrix(1 0 0 1 1486.9878 190.2583)" class="st4 ">818</text>
                </g>
                <g>
                    <rect x="1190.1" y="25.1" class="st6" width="161.9" height="175.2" id="d16"></rect>
                    <text transform="matrix(1 0 0 1 1260.0963 190.2587)" class="st4 ">816</text>
                </g>
                <g>
                    <rect x="984.7" y="25.1" class="st8" width="204.4" height="175.2" id="d14"></rect>
                    <text transform="matrix(1 0 0 1 1147.7167 190.2583)" class="st4">814</text>
                </g>
                <g>
                    <rect x="907.2" y="25.1" class="st6" width="77.6" height="175.2" id="d12"></rect>
                    <text transform="matrix(1 0 0 1 938.1332 190.2587)" class="st4">812</text>
                </g>
                <g>
                    <rect x="840.1" y="25.1" class="st6" width="67" height="175.2" id="d10"></rect>
                    <text transform="matrix(1 0 0 1 866.4533 190.2587)" class="st4">810</text>
                </g>
                <g>
                    <rect x="639.3" y="379.7" class="st6" width="60.3" height="175.6" id="dwc"></rect>
                    <text transform="matrix(1 0 0 1 659.586 398.7562)" class="st4">WC</text>
                </g>
                <g>
                    <rect x="699.5" y="379.7" class="st8" width="103" height="175.6" id="d5"></rect>
                    <text transform="matrix(1 0 0 1 735.702 399.4054)" class="st4 ">805</text>
                </g>
                <g>
                    <rect x="802.6" y="379.7" class="st6" width="85.1" height="175.6" id="d7"></rect>
                    <text transform="matrix(1 0 0 1 816.6597 398.8384)" class="st4">807</text>
                </g>
                <g>
                    <rect x="887.7" y="379.6" class="st8" width="162.3" height="175.6" id="d9"></rect>
                    <text transform="matrix(0.924 0 0 1 911.4569 398.8498)" class="st4">809 </text>
                </g>
                <g>
                    <rect x="1120.7" y="379.7" class="st8" width="131.9" height="175.6" id="d13"></rect>
                    <text transform="matrix(1 0 0 1 1163.1246 398.7562)" class="st4">813</text>
                </g>
                <g>
                    <rect x="1252.3" y="379.5" class="st6" width="117.1" height="175.8" id="d15"></rect>
                    <text transform="matrix(1 0 0 1 1270.5236 399.107)" class="st4">815</text>
                </g>
                <g>
                    <rect x="1610.4" y="379.8" class="st6" width="66.9" height="175.5" id="dwc"></rect>
                    <text transform="matrix(1 0 0 1 1632.1736 398.7562)" class="st4">WC</text>
                </g>
                <g>
                    <rect x="1677.4" y="379.8" class="st6" width="87.9" height="175.5" id="d21"></rect>
                    <text transform="matrix(1 0 0 1 1693.9222 398.812)" class="st4">821</text>
                </g>
                <g>
                    <rect x="1369.4" y="379.8" class="st8" width="170.6" height="175.5" id="d17"></rect>
                    <text transform="matrix(1.0697 0 0 1 1440.9576 398.756)" class="st4">817</text>
                </g>
                <g>
                    <rect x="1765.3" y="379.5" class="st8" width="192.5" height="175.8" id="d23"></rect>
                    <text transform="matrix(1 0 0 1 1866.3418 398.812)" class="st4">823</text>
                </g>
                <g>
                    <rect x="38.1" y="379.6" class="st8" width="232.7" height="175.7" id="d1"></rect>
                    <text transform="matrix(1 0 0 1 99.6612 397.108)" class="st4">801</text>
                </g>
                <g>
                    <rect x="270.9" y="379.6" class="st6" width="95" height="175.7" id="d3"></rect>
                    <text transform="matrix(1 0 0 1 306.6442 399.4054)" class="st4">803</text>
                </g>
                <g>
                    <rect x="176.6" y="25.1" class="st8" width="189.8" height="175.2" id="d6"></rect>
                    <text transform="matrix(1 0 0 1 323.1908 190.16)" class="st4">806</text>
                </g>
                <g>
                    <rect x="38.1" y="25.1" class="st8" width="138.4" height="175.2" id="d2"></rect>
                    <text transform="matrix(1 0 0 1 145.5543 189.9037)" class="st4">802</text>
                </g>
                <g>
                    <rect x="1655.7" y="25.1" class="st7" width="210.5" height="175.2" id="d20"></rect>
                    <text transform="matrix(1 0 0 1 1780.3676 190.2587)" class="st4">820</text>
                </g>
                <g>
                    <rect x="1866.3" y="25.1" class="st6" width="91.4" height="175.2" id="d24"></rect>
                    <text transform="matrix(1 0 0 1 1887.9764 190.2587)" class="st4">824</text>
                </g>
                <polyline class="st0" points="1866.3,379.1 1713.4,379.2 1702.3,353.3 	"></polyline>
                <polyline class="st0" points="938.1,200.3 893.9,200.3 879.3,227.1 	"></polyline>
                <polyline class="st0" points="868.8,200.3 824.6,200.3 810.1,227.1 	"></polyline>
                <polyline class="st0" points="791.8,200.3 702,200.3 687.5,227.1 	"></polyline>
                <g>
                    <rect x="1049.9" y="379.8" class="st6" width="70.7" height="175.5" id="d11"></rect>
                    <text transform="matrix(1 0 0 1 1073.5535 398.7562)" class="st4">811</text>
                </g>
                <g>
                    <rect x="741.6" y="25.1" class="st6" width="97.9" height="175.2" id="d8a"></rect>
                    <text transform="matrix(1 0 0 1 790.8616 190.2583)" class="st4">808A</text>
                </g>
                <g>
                    <rect x="633.4" y="25.1" class="st6" width="108.2" height="175.2" id="d8"></rect>
                    <text transform="matrix(1 0 0 1 678.9457 190.2583)" class="st4">808</text>
                </g>
            </g>
            <g id="Слой_3">
                <text transform="matrix(1 0 0 1 138.4481 547.8217)" class=" st5">67.4</text>
                <text transform="matrix(1 0 0 1 95.6607 38.6589)" class=" st5">34.8</text>
                <text transform="matrix(1 0 0 1 260.9597 38.6589)" class=" st5">65.4</text>
                <text transform="matrix(1 0 0 1 863.1771 38.6589)" class=" st5">14.0</text>
                <text transform="matrix(1 0 0 1 780.3859 38.6589)" class=" st5">48.9</text>
                <text transform="matrix(1 0 0 1 677.0058 38.6589)" class=" st5">49.9</text>
                <text transform="matrix(1 0 0 1 931.6954 38.6589)" class=" st5">14.8</text>
                <text transform="matrix(1 0 0 1 1734.7808 38.6589)" class=" st5">66.3</text>
                <text transform="matrix(1 0 0 1 1895.7808 38.6589)" class=" st5">18.3</text>
                <text transform="matrix(1 0 0 1 1480.7637 38.6589)" class=" st5">100.1</text>
                <text transform="matrix(1 0 0 1 1257.9945 38.6589)" class=" st5">49.8</text>
                <text transform="matrix(1 0 0 1 1079.8221 38.6589)" class=" st5">67.8</text>
                <text transform="matrix(1 0 0 1 308.1226 547.8217)" class=" st5">15.4</text>
                <text transform="matrix(1 0 0 1 663.9332 547.8217)" class=" st5">7.7</text>
                <text transform="matrix(1 0 0 1 745.7891 547.8217)" class=" st5">32.9</text>
                <text transform="matrix(1 0 0 1 834.6945 547.8217)" class=" st5">16.2</text>
                <text transform="matrix(1 0 0 1 977.0269 547.8217)" class=" st5">52.5</text>
                <text transform="matrix(1 0 0 1 1081.146 547.8217)" class=" st5">13.9</text>
                <text transform="matrix(1 0 0 1 1176.1381 547.8217)" class=" st5">49.8</text>
                <text transform="matrix(1 0 0 1 1305.6305 547.8217)" class=" st5">32.7 </text>
                <text transform="matrix(1 0 0 1 1444.2131 547.8217)" class=" st5">66.1</text>
                <text transform="matrix(1 0 0 1 1636.5208 547.8217)" class=" st5">7.7</text>
                <text transform="matrix(1 0 0 1 1709.2485 547.8217)" class=" st5">16.3</text>
                <text transform="matrix(1 0 0 1 1853.3068 547.8217)" class=" st5">51.6</text>
            </g>
            <g id="Слой_4">
                <text transform="matrix(1 0 0 1 141.5236 462.3586)" class="st3">Лаб.</text>
                <text transform="matrix(1 0 0 1 93.6654 107.5973)" class="st3">Лаб.</text>
                <text transform="matrix(1 0 0 1 261.6364 107.5973)" class="st3">Лаб.</text>
                <text transform="matrix(1 0 0 1 1074.4615 107.5973)" class="st3">Лаб.</text>
                <text transform="matrix(1 0 0 1 1472.4722 107.5973)" class="st3">Лекц. ауд.</text>
                <text transform="matrix(1 0 0 1 1737.9164 107.5973)" class="st3">Лекц. ауд.</text>
                <text transform="matrix(1 0 0 1 740.2072 462.3586)" class="st3">Лаб.</text>
                <text transform="matrix(1 0 0 1 957.9647 462.3586)" class="st3">Лаб.</text>
                <text transform="matrix(1 0 0 1 1178.2797 462.3586)" class="st3">Лаб.</text>
                <text transform="matrix(1 0 0 1 1447.8452 462.3586)" class="st3">Лаб.</text>
                <text transform="matrix(1 0 0 1 1855.3076 462.3586)" class="st3">Лаб.</text>
            </g>
            <g id="Слой_6">
                <polyline class="st0" points="52.9,602.9 56.6,611.4 60.5,611.4 60.5,573.3 38.1,573.3 38.1,611.4 41.9,611.4 45.6,602.9 		"></polyline>
                <rect x="38.1" y="621.1" class="st1" width="11" height="44.9"></rect>
                <text transform="matrix(1 0 0 1 68.8309 595.8264)" style="font-size: 15px; font-weight:500;" class="st3">Сходи</text>
                <text transform="matrix(1 0 0 1 68.8309 647.1559)" style="font-size: 15px; font-weight:500;" class="st3">Ліфт</text>
            </g>
            </svg>