<svg version="1.1" xmlns="http://www.w3.org/2000/svg" xmlns:xlink="http://www.w3.org/1999/xlink" x="0px" y="0px" viewBox="0 0 2002.2 730.2" style="enable-background:new 0 0 2002.2 590.2;" xml:space="preserve">
            <style type="text/css">
                .st0{fill:none;stroke:#1D1D1B;stroke-width:1.5;stroke-miterlimit:10;}
                .st2{fill: black; font-size:15px; font-family:'Lemon/Milk(RUS BY LYAJKA) Regular';}
                .st3{fill: black; font-size:14px; font-family:'FranklinGothic-Medium';}
                .st4{fill:#E5E5E5;stroke:#000000;stroke-miterlimit:10;}
                .st5{fill:#1D1D1B; font-size:12px;font-weight:700;}
                .st6{opacity: 0.3;fill:white;stroke:rgb(68, 68, 68); stroke-width:0.75;stroke-miterlimit:10;}
                .st6:hover {
                    fill:rgb(251, 255, 0);
                } 
                .stv{fill:#f03434; opacity:0.7;}
                .st7{opacity: 0.7;fill:rgb(240, 236, 12);stroke:rgb(68, 68, 68); stroke-width:0.75;stroke-miterlimit:10;}
                .st7:hover { fill:rgb(255, 230, 0) }
                .st8{opacity: 0.7;fill:rgb(255, 212, 19);stroke:rgb(68, 68, 68); stroke-width:0.75;stroke-miterlimit:10;}
                .st8:hover { fill:rgb(255, 196, 0)  }
                .st9{opacity: 0.7;fill:rgb(248, 170, 3);stroke:rgb(68, 68, 68); stroke-width:0.75;stroke-miterlimit:10;}
                .st9:hover { fill:rgb(255, 188, 45) }

                
            </style>

            <g id="Слой_0">
                <polyline class="st0" points="653.8,379.7 639.3,379.7 640.9,555.3 366.3,555.3 366.3,379.8 	"></polyline>
                <polyline class="st0" points="305.4,379.8 242.7,379.8 231.7,353 	"></polyline>
                <polyline class="st0" points="366.3,379.8 351.8,379.8 340.9,353 	"></polyline>
                <polyline class="st0" points="187.6,379.8 152.1,379.8 141.1,353 	"></polyline>
                <polyline class="st0" points="83.9,200.3 38.1,200.3 38.1,379.8 94.5,379.8 	"></polyline>
                <polyline class="st0" points="201.1,200.3 120.4,200.3 109.3,227.1 	"></polyline>
                <polyline class="st0" points="318.3,200.3 242.2,200.3 231.3,226.4 	"></polyline>
                <polyline class="st0" points="476,200.3 351.7,200.3 340.5,227.1 	"></polyline>
                <path class="st0" d="M366.3,379.8"></path>
                <g>
                <rect x="38.1" y="379.6" class="st6" width="130.3" height="175.7" id="d1"></rect>
                <text transform="matrix(1 0 0 1 111.4054 397.107)" class="st2 ">301</text>
                </g>

                <g>
                    <rect x="168.4" y="379.6" class="st9" width="123.6" height="175.7" id="d3"></rect>
                    <text transform="matrix(1 0 0 1 205.1926 399.4054)" class="st2 ">303</text>
                </g>
                
                <g>
                    <rect x="292" y="380.1" class="st6" width="73.9" height="175.5" id="d5"></rect>
                    <text transform="matrix(1 0 0 1 315.1926 399.4054)" class="st2 ">305</text>
                </g>
                
                <g>
                    <rect x="898.6" y="379.7" class="st8" width="102.5" height="175.6" id="d11"></rect>
                    <text transform="matrix(1 0 0 1 945.0149 398.9286)" class="st2 ">311</text>
                </g>
                
                <g>
                    <rect x="699.5" y="379.7" class="st8" width="101.3" height="175.6" id="d7"></rect>
                    <text transform="matrix(1 0 0 1 735.702 399.4054)" class="st2 ">307</text>
                </g>

                <g>
                    <rect x="800.8" y="379.7" class="st6" width="97.8" height="175.6" id="d9"></rect>
                    <text transform="matrix(1 0 0 1 817.5543 398.8375)" class="st2 ">309 </text>
                </g>

                
                <g>
                    <rect x="639.3" y="379.7" class="st6" width="60.3" height="175.6" id="dwc"></rect>
                    <text transform="matrix(1 0 0 1 659.586 398.7562)" class="st2 ">WC</text>
                </g>

                
                <g>
                    <rect x="38.1" y="25.1" class="st6" width="94.3" height="175.2" id="d2"></rect>
                    <text transform="matrix(1 0 0 1 89.6097 189.9037)" class="st2 ">302</text>
                </g>
                
                <g>
                    <rect x="132.5" y="25.1" class="st7" width="130" height="175.2" id="d4"></rect>
                    <text transform="matrix(1 0 0 1 211.4778 190.16)" class="st2 ">304</text>
                </g>
                
                <g>
                    <rect x="262.5" y="25.1" class="st6" width="103.8" height="175.2" id="d6"></rect>
                    <text transform="matrix(1 0 0 1 323.1908 190.16)" class="st2 ">306</text>
                </g>
        
                <rect x="360.5" y="402.9" class="st4" width="10.9" height="64"></rect>
                <rect x="360.5" y="473.2" class="st4" width="10.9" height="64"></rect>
                <g>
                    <polyline class="st0" points="1563.9,406.6 1552.4,379.8 1540,379.8 1540,555.3 1610.4,555.3 1610.4,379.8 1598.4,379.8 
                        1586.9,406.6 		"></polyline>
                    <line class="st0" x1="1554.6" y1="421.9" x2="1595.8" y2="421.9"></line>
                    <line class="st0" x1="1554.6" y1="434.5" x2="1595.8" y2="434.5"></line>
                    <line class="st0" x1="1554.6" y1="447.1" x2="1595.8" y2="447.1"></line>
                    <line class="st0" x1="1554.6" y1="459.7" x2="1595.8" y2="459.7"></line>
                    <line class="st0" x1="1554.6" y1="472.3" x2="1595.8" y2="472.3"></line>
                    <line class="st0" x1="1554.6" y1="484.9" x2="1595.8" y2="484.9"></line>
                    <line class="st0" x1="1554.6" y1="497.5" x2="1595.8" y2="497.5"></line>
                    <line class="st0" x1="1554.6" y1="510.1" x2="1595.8" y2="510.1"></line>
                    <line class="st0" x1="1554.6" y1="522.7" x2="1595.8" y2="522.7"></line>
                    <line class="st0" x1="1554.6" y1="535.3" x2="1595.8" y2="535.3"></line>
                </g>
                <g>
                    <polyline class="st0" points="510.5,173.5 522,200.3 534.4,200.3 534.4,80.5 464,80.5 464,200.3 476,200.3 487.5,173.5 		"></polyline>
                    <line class="st0" x1="477.7" y1="92.2" x2="518.9" y2="92.2"></line>
                    <line class="st0" x1="477.7" y1="102.8" x2="518.9" y2="102.8"></line>
                    <line class="st0" x1="477.7" y1="113.3" x2="518.9" y2="113.3"></line>
                    <line class="st0" x1="477.7" y1="123.9" x2="518.9" y2="123.9"></line>
                    <line class="st0" x1="477.7" y1="134.4" x2="518.9" y2="134.4"></line>
                    <line class="st0" x1="477.7" y1="145" x2="518.9" y2="145"></line>
                    <line class="st0" x1="477.7" y1="155.5" x2="518.9" y2="155.5"></line>
                </g>
                <rect x="38.1" y="25.1" class="st0" width="1919.6" height="530.2"></rect>
            </g>


            <g id="Слой_1">
                <polyline class="st0" points="1897.9,228.7 1908.5,200.3 1957.8,200.3 1957.8,379.8 1888.3,379.8 1878.1,352.6 	"></polyline>
                <polyline class="st0" points="1730.1,379.5 1657.8,379.5 1646.7,353.7 	"></polyline>
                <polyline class="st0" points="1638.3,379.5 1521,379.5 1509.5,353 	"></polyline>
                <polyline class="st0" points="1487.8,379.5 1450.1,379.5 1438.7,353 	"></polyline>
                <polyline class="st0" points="1421.2,379.6 1277,379.6 1266,352.9 	"></polyline>
                <polyline class="st0" points="1244,379.6 1144.6,379.6 1133.7,352.9 	"></polyline>
                <polyline class="st0" points="1123.2,379.6 1061.5,379.6 1050.7,352.7 	"></polyline>
                <polyline class="st0" points="1034.9,379.6 964.5,379.6 953.9,352.7 	"></polyline>
                <polyline class="st0" points="941,379.7 837.5,379.7 826.8,352.8 	"></polyline>
                <polyline class="st0" points="813,379.7 755.5,379.7 744.8,352.8 	"></polyline>
                <polyline class="st0" points="733.5,379.7 676.7,379.7 666,352.8 	"></polyline>
                <line class="st0" x1="699.6" y1="200.3" x2="522" y2="200.3"></line>
                <polyline class="st0" points="909.6,200.3 836.6,200.3 822,227.1 	"></polyline>
                <polyline class="st0" points="1050.2,200.3 930.4,200.3 918.6,227.1 	"></polyline>
                <polyline class="st0" points="1144.2,200.3 1075.4,200.3 1059.9,226.4 	"></polyline>
                <polyline class="st0" points="1219.8,200.3 1179.7,200.3 1168.5,226.4 	"></polyline>
                <polyline class="st0" points="1389.1,200.3 1248.1,200.3 1236.6,227.1 	"></polyline>
                <polyline class="st0" points="1536.9,200.3 1409.3,200.7 1398.3,226.7 	"></polyline>
                <polyline class="st0" points="1643.7,200.3 1563.8,200.3 1552.1,227.1 	"></polyline>
                <polyline class="st0" points="1758.4,200.3 1675.6,200.3 1664.7,227.1 	"></polyline>
                <polyline class="st0" points="1888,200.3 1789.2,200.3 1777.9,227.1 	"></polyline>
                <path class="st1" d="M1777.9,200.3"></path>
                <path class="st1" d="M1847.1,200.3"></path>
                <polyline class="st0" points="1866.3,379.1 1752.1,379.2 1741,353.3 	"></polyline>
                <polyline class="st0" points="817.8,200.3 721.1,200.3 706.5,227.1 	"></polyline>
            </g>
            <g id="Слой_4">
                <text transform="matrix(1 0 0 1 86.5458 548.9386)" class="st3 ">48.6</text>
                <text transform="matrix(1 0 0 1 218.2065 548.9386)" class="st3 ">32.5</text>
                <text transform="matrix(1 0 0 1 321.0995 548.9386)" class="st3 ">15.2</text>
                <text transform="matrix(1 0 0 1 663.9329 548.9386)" class="st3 ">7.9</text>
                <text transform="matrix(1 0 0 1 739.6833 548.9386)" class="st3 ">32.3</text>
                <text transform="matrix(1 0 0 1 842.381 548.9386)" class="st3 ">31.7</text>
                <text transform="matrix(1 0 0 1 946.2841 548.9386)" class="st3 ">34.6</text>
                <g> 
                    <rect x="1001.8" y="379.7" class="st6" width="91.8" height="175.6" id="d13"></rect>
                    <text transform="matrix(1 0 0 1 1034.9016 398.7562)" class="st2">313</text>
                    <text transform="matrix(1 0 0 1 1039.9181 548.9386)" class="st3 ">29.6</text>
                </g>
                <g>
                    <rect x="1093.3" y="379.7" class="st8" width="75.2" height="175.6" id="d15"></rect>
                    <text transform="matrix(1 0 0 1 1124.3367 398.7562)" class="st2">315</text>
                    <text transform="matrix(1 0 0 1 1125.6057 548.9386)" class="st3 ">23.1</text>
                </g>
                <g>
                    <rect x="1168.5" y="379.5" class="st7" width="192.6" height="175.8" id="d17"></rect>
                    <text transform="matrix(1 0 0 1 1245.6395 399.107)" class="st2">317</text>
                    <text transform="matrix(1 0 0 1 1254.3313 548.9386)" class="st3 ">49.9</text>
                </g>
                <g>
                    <rect x="1361.3" y="379.8" class="st8" width="104.8" height="175.5" id="d19"></rect>
                    <text transform="matrix(1 0 0 1 1429.9666 398.7562)" class="st2">319</text>
                    <text transform="matrix(1 0 0 1 1403.1923 548.9386)" class="st3 ">32.2</text>
                </g>
                <g>
                    <rect x="1466.1" y="379.8" class="st6" width="72.3" height="175.5" id="d19a"></rect>
                    <text transform="matrix(1 0 0 1 1487.8389 398.7562)" class="st2">319A</text>
                    <text transform="matrix(1 0 0 1 1493.9595 548.9376)" class="st3 ">17.0</text>
                </g>
                <g>
                    <rect x="1610.4" y="379.8" class="st6" width="69.2" height="175.5" id="dwc"></rect>
                    <text transform="matrix(1 0 0 1 1638.3417 398.7562)" class="st2">WC</text>
                    <text transform="matrix(1 0 0 1 1642.2369 548.9376)" class="st3 ">7.9</text>
                </g>
                <g>
                    <rect x="1679.6" y="379.8" class="st6" width="133.8" height="175.5" id="d21"></rect>
                    <text transform="matrix(1 0 0 1 1731.2108 398.812)" class="st2">321</text>
                    <text transform="matrix(1 0 0 1 1736.0488 548.9376)" class="st3 ">31.5</text>
                </g>
                <g>
                    <rect x="1813.4" y="379.5" class="st6 stv" width="144.3" height="175.8" id="d23"></rect>
                    <text transform="matrix(1 0 0 1 1866.3413 398.812)" class="st2">323</text>
                    <text transform="matrix(1 0 0 1 1875.126 548.9376)" class="st3 ">33.6</text>
                </g>
                <text transform="matrix(1 0 0 1 74.8204 40.1944)" class="st3 ">33.4</text>
                <text transform="matrix(1 0 0 1 183.1373 40.1944)" class="st3 ">32.6</text>
                <text transform="matrix(1 0 0 1 299.3691 40.1944)" class="st3 ">31.6</text>
                <g>
                    <rect x="634.1" y="25.1" class="st8" width="101.6" height="175.2" id="d8"></rect>
                    <text transform="matrix(1 0 0 1 700.6641 190.2587)" class="st2">308</text>
                    <text transform="matrix(1 0 0 1 681.1362 40.1944)" class="st3 ">32.3</text>
                </g>
                <g>
                    <rect x="735.7" y="25.1" class="st8" width="108.9" height="175.2" id="d10"></rect>
                    <text transform="matrix(1 0 0 1 816.6608 190.2587)" class="st2">310</text>
                    <text transform="matrix(1 0 0 1 782.2273 40.1944)" class="st3 ">32.6</text>
                </g>
                <g>
                    <rect x="844.4" y="25.1" class="st6" width="95.9" height="175.2" id="d12"></rect>
                    <text transform="matrix(1 0 0 1 908.7232 190.2587)" class="st2">312</text>
                    <text transform="matrix(1 0 0 1 884.6349 40.1944)" class="st3 ">32.1</text>
                </g>
                <g>
                    <rect x="940.7" y="25.1" class="st8" width="168.7" height="175.2" id="d14"></rect>
                    <text transform="matrix(1 0 0 1 1050.16 190.2587)" class="st2">314</text>
                    <text transform="matrix(1 0 0 1 1014.5255 40.1944)" class="st3 ">49.5</text>
                </g>
                <g>
                    <rect x="1109.2" y="25.1" class="st6 stv" width="83.7" height="175.2" id="d14a"></rect>
                    <text transform="matrix(1 0 0 1 1144.235 190.2583)" class="st2">314A</text>
                    <text transform="matrix(1 0 0 1 1140.6105 40.1944)" class="st3 ">17.7</text>
                </g>
                <g>
                    <rect x="1192.8" y="25.1" class="st6" width="144" height="175.2" id="d16"></rect>
                    <text transform="matrix(1 0 0 1 1226.7355 190.2587)" class="st2">316</text>
                    <text transform="matrix(1 0 0 1 1222.9171 40.1944)" class="st3 ">49.0</text>
                </g>
                <g>
                    <rect x="1506.3" y="25.1" class="st6" width="112.8" height="175.2" id="d20"></rect>
                    <text transform="matrix(1 0 0 1 1538.4175 190.2587)" class="st2">320</text>
                    <text transform="matrix(1 0 0 1 1547.3383 40.1944)" class="st3 ">32.8</text>
                </g>
                <g>
                    <rect x="1336.8" y="25.1" class="st7" width="168.7" height="175.2" id="d18"></rect>
                    <text transform="matrix(1 0 0 1 1389.0745 190.2587)" class="st2">318</text>
                    <text transform="matrix(1 0 0 1 1405.7395 40.1944)" class="st3 ">49.5</text>
                </g>
                <g>
                    <rect x="1734.5" y="25.1" class="st6" width="108.8" height="175.2" id="d22a"></rect>
                    <text transform="matrix(1 0 0 1 1761.0428 190.2583)" class="st2">322A</text>
                    <text transform="matrix(1 0 0 1 1778.4197 40.1944)" class="st3 ">32.3</text>
                </g>
                <g>
                    <rect x="1618.7" y="25.1" class="st9" width="116.1" height="175.2" id="d22"></rect>
                    <text transform="matrix(1 0 0 1 1647.3256 190.2587)" class="st2">322</text>
                    <text transform="matrix(1 0 0 1 1666.2908 40.1944)" class="st3 ">33.3</text>
                </g>
                <g>
                    <rect x="1844.3" y="25.1" class="st6" width="113.5" height="175.2" id="d24"></rect>
                    <text transform="matrix(1 0 0 1 1887.9764 190.2587)" class="st2">324</text>
                    <text transform="matrix(1 0 0 1 1890.5486 40.1944)" class="st3">33.2</text>
                </g>
            </g>
            <g id="Слой_3">
                <text transform="matrix(1 0 0 1 87.1842 469.2078)" class=" st5">КГРТБ</text>
                <text transform="matrix(1 0 0 1 203.1928 469.2078)" class=" st5">Комп. ауд.</text>
                <text transform="matrix(1 0 0 1 70.4481 121.2311)" class=" st5">КМА</text>
                <text transform="matrix(1 0 0 1 305.4481 121.2311)" class=" st5">КЕТ</text>
                <text transform="matrix(1 0 0 1 171.4481 121.2311)" class=" st5">Лекц. ауд.</text>
                <text transform="matrix(1 0 0 1 655.8671 121.2311)" class=" st5">Навч. ауд.</text>
                <text transform="matrix(1 0 0 1 763.782 121.2311)" class=" st5">Навч. ауд.</text>
                <text transform="matrix(1 0 0 1 998.7841 121.2311)" class=" st5">Навч. ауд.</text>
                <text transform="matrix(1 0 0 1 1394.3503 121.2311)" class=" st5">Лекц. ауд.</text>
                <text transform="matrix(1 0 0 1 1646.0389 121.2311)" class=" st5">Комп. ауд.</text>
                <text transform="matrix(1 0 0 1 723.3821 469.2078)" class=" st5">Навч. ауд.</text>
                <text transform="matrix(1 0 0 1 923.0733 469.2078)" class=" st5">Навч. ауд.</text>
                <text transform="matrix(1 0 0 1 1102.1586 469.2078)" class=" st5">Навч. ауд.</text>
                <text transform="matrix(1 0 0 1 1384.4583 469.2078)" class=" st5">Навч. ауд.</text>
                <text transform="matrix(1 0 0 1 1235.952 469.2078)" class=" st5">Лекц. ауд.</text>
            </g>
            <g id="Слой_6">
                <polyline class="st0" points="52.9,602.9 56.6,611.4 60.5,611.4 60.5,573.3 38.1,573.3 38.1,611.4 41.9,611.4 45.6,602.9 		"></polyline>

                <rect x="38.1" y="621.1" class="st4" width="11" height="44.9"></rect>
                <text transform="matrix(1 0 0 1 68.8309 595.8264)" style="font-size: 15px; font-weight:500;" class="st5">Сходи</text>
                <text transform="matrix(1 0 0 1 68.8309 647.1559)" style="font-size: 15px; font-weight:500;" class="st5">Ліфт</text>
                <rect x="38.1" y="676.7" class="stv" width="19.7" height="46"></rect>
		        <text transform="matrix(1 0 0 1 68.8309 705.2941)" style="font-size: 15px; font-weight:500;" class="st5">Відділ</text>
            </g>
            </svg>