<svg version="1.1" xmlns="http://www.w3.org/2000/svg" xmlns:xlink="http://www.w3.org/1999/xlink" x="0px" y="0px" viewBox="0 0 2002.2 730.2" style="enable-background:new 0 0 2002.2 590.2;" xml:space="preserve">
    <style type="text/css">
        .st0{fill:none;stroke:#1D1D1B;stroke-width:1.4704;stroke-miterlimit:10;}
        .st1{fill:none;stroke:#1D1D1B;stroke-width:0.9273;stroke-miterlimit:10;}
        .st3{fill: black; font-size:15px; font-family:'Lemon/Milk(RUS BY LYAJKA) Regular';}
        .st4{fill: black; font-size:14px; font-family:'FranklinGothic-Medium';}
        .st5{fill:#E5E5E5;stroke:#000000;stroke-miterlimit:10;}
        .st6{opacity: 0.4;fill:white;stroke:rgb(68, 68, 68);stroke-width:0.75;stroke-miterlimit:10;}
        .st6:hover {
          fill:rgb(9, 172, 57);
      } 
        .st7{fill:#1D1D1B; font-size:12px;font-weight:700;}
        .st8{fill:#2DAB66;}
        .st9{fill:#009540;}
        .st10{fill:#FFFFFF;}
        .stv{fill:#f03434; opacity:0.7;}
        .st11{opacity: 0.7;fill:rgb(179, 250, 66);stroke:rgb(68, 68, 68); stroke-width:0.75;stroke-miterlimit:10;}
        .st11:hover { fill:rgb(162, 250, 20)  }
        .st12{opacity: 0.7;fill:rgb(139, 204, 35);stroke:rgb(68, 68, 68); stroke-width:0.75;stroke-miterlimit:10;}
        .st12:hover { fill:rgb(130, 202, 14)  }
        .st13{opacity: 0.7;fill:rgb(75, 204, 35);stroke:rgb(68, 68, 68); stroke-width:0.75;stroke-miterlimit:10;}
        .st13:hover { fill:rgb(50, 185, 9)  }
    </style>
    <g id="Слой_1">
        <polyline class="st0" points="1957.6,379.5 1897.3,379.5 1886.3,353.7 	"></polyline>
        <polyline class="st0" points="1866.2,379.5 1752.2,379.5 1741.2,353.7 	"></polyline>
        <polyline class="st0" points="1723.3,379.5 1695.4,379.5 1684.3,353.7 	"></polyline>
        <polyline class="st0" points="1677.6,379.5 1507.3,379.5 1495.8,353 	"></polyline>
        <polyline class="st0" points="1475.8,379.5 1388.1,379.5 1376.7,353 	"></polyline>
        <polyline class="st0" points="1367.4,379.6 1272.2,379.6 1260.7,353 	"></polyline>
        <polyline class="st0" points="1250.2,379.7 1137.9,379.7 1127.1,352.8 	"></polyline>
        <polyline class="st0" points="1117.9,379.6 1029.5,379.6 1018.9,352.7 	"></polyline>
        <polyline class="st0" points="1009.4,379.6 899.4,379.7 887.9,352.7 	"></polyline>
        <polyline class="st0" points="878.4,379.7 781.3,379.7 770.5,352.8 	"></polyline>
        <polyline class="st0" points="760.5,379.7 683,379.7 672.3,352.8 	"></polyline>
        <polyline class="st0" points="667.6,379.7 610.6,379.7 599.9,352.8 	"></polyline>
        <polyline class="st0" points="592.7,379.7 576.4,379.7 576.4,555.3 366.3,555.3 366.3,379.8 331.6,379.8 320.2,353.1 	"></polyline>
        <polyline class="st0" points="310.1,379.8 208.7,379.8 197.7,353 	"></polyline>
        <polyline class="st0" points="186,379.8 68.5,379.8 57.6,353 	"></polyline>
        <polyline class="st0" points="110.4,200.3 38.1,200.3 38.1,379.8 49.9,379.8 	"></polyline>
        <polyline class="st0" points="268.7,200.3 131.3,200.3 120.2,227.1 	"></polyline>
        <polyline class="st0" points="329.9,200.3 293.1,200.3 282.2,226.4 	"></polyline>
        <polyline class="st0" points="440.8,200.3 351.4,200.3 340.1,227.1 	"></polyline>
        <line class="st0" x1="602.6" y1="200.3" x2="499.2" y2="200.3"></line>
        <polyline class="st0" points="721.1,200.3 624.5,200.3 609.9,227.1 	"></polyline>
        <polyline class="st0" points="802.1,200.3 742.6,200.3 730.8,227.1 	"></polyline>
        <polyline class="st0" points="961.4,200.3 822.2,200.3 806.7,226.4 	"></polyline>
        <polyline class="st0" points="1051,200.3 1034.6,200.3 1023.4,226.4 	"></polyline>
        <polyline class="st0" points="1015.3,200.3 982.6,200.3 971.4,226.4 	"></polyline>
        <polyline class="st0" points="1415.6,200.3 1338.5,200.3 1327,227.1 	"></polyline>
        <polyline class="st0" points="1547.9,200.3 1436.9,200.3 1425.9,226.3 	"></polyline>
        <polyline class="st0" points="1596,200.3 1567.9,200.3 1556.3,227.1 	"></polyline>
        <polyline class="st0" points="1804.8,200.3 1693.1,200.3 1682.2,227.1 	"></polyline>
        <polyline class="st0" points="1957.8,200.3 1826.1,200.3 1814.7,227.1 	"></polyline>
        <line class="st1" x1="366.3" y1="200.3" x2="366.3" y2="379.8"></line>
        <g>
            <rect x="1226.9" y="379.6" class="st6" width="118.2" height="175.8" id="d19"></rect>
            <text transform="matrix(1 0 0 1 1252.9432 399.107)" class="st3 ">619</text>
        </g>
        <rect x="360.5" y="402.9" class="st5" width="10.9" height="64"></rect>
        <rect x="360.5" y="473.2" class="st5" width="10.9" height="64"></rect>
        <g>
            <polyline class="st1" points="1615.8,406.6 1605.4,379.8 1594.1,379.8 1594.1,555.3 1664.6,555.3 1664.6,379.8 1653.7,379.8 
                1643.2,406.6 		"></polyline>
            <line class="st1" x1="1610.5" y1="425.6" x2="1647.8" y2="425.6"></line>
            <line class="st1" x1="1610.5" y1="439.5" x2="1647.8" y2="439.5"></line>
            <line class="st1" x1="1610.5" y1="453.3" x2="1647.8" y2="453.3"></line>
            <line class="st1" x1="1610.5" y1="467.1" x2="1647.8" y2="467.1"></line>
            <line class="st1" x1="1610.5" y1="480.9" x2="1647.8" y2="480.9"></line>
            <line class="st1" x1="1610.5" y1="494.8" x2="1647.8" y2="494.8"></line>
            <line class="st1" x1="1610.5" y1="508.6" x2="1647.8" y2="508.6"></line>
        </g>
        <g>
            <polyline class="st1" points="475.7,173.5 487.2,200.3 499.6,200.3 499.6,80.5 429.2,80.5 429.2,200.3 441.2,200.3 452.7,173.5 		
                "></polyline>
            <line class="st1" x1="448" y1="92.2" x2="482.4" y2="92.2"></line>
            <line class="st1" x1="448" y1="103.8" x2="482.4" y2="103.8"></line>
            <line class="st1" x1="448" y1="115.4" x2="482.4" y2="115.4"></line>
            <line class="st1" x1="448" y1="126.9" x2="482.4" y2="126.9"></line>
            <line class="st1" x1="448" y1="138.5" x2="482.4" y2="138.5"></line>
            <line class="st1" x1="448" y1="150.1" x2="482.4" y2="150.1"></line>
            <line class="st1" x1="448" y1="161.7" x2="482.4" y2="161.7"></line>
        </g>
        <rect x="38.1" y="25.1" class="st0" width="1919.6" height="530.2"></rect>
        <g>
            <rect x="1531.6" y="25.1" class="st13" width="64.3" height="175.2" id="d20"></rect>
            <text transform="matrix(1 0 0 1 1546.9663 190.2587)" class="st3 ">620</text>
        </g>
        <g>
            <rect x="1345.4" y="25.1" class="st6" width="186.2" height="175.2" id="d18"></rect>
            <text transform="matrix(1 0 0 1 1415.6394 190.2587)" class="st3 ">618</text>
        </g>
        <g>
            <rect x="1108.9" y="25.1" class="st13" width="236.6" height="175.2" id="d16"></rect>
            <text transform="matrix(1 0 0 1 1318.3628 190.2587)" class="st3 ">616</text>
            
        </g>
        <rect x="1051" y="25.1" class="st6" width="57.9" height="175.2"></rect>
        <g>
            <rect x="1001.1" y="25.1" class="st12" width="49.8" height="175.2" id="d14b"></rect>
            <text transform="matrix(1 0 0 1 1009.512 190.2583)" class="st3 ">614 б</text>          
        </g>
        <g>
            <rect x="932.5" y="25.1" class="st13" width="68.6" height="175.2" id="d14a"></rect>
            <text transform="matrix(1 0 0 1 955.2805 190.2583)" class="st3 ">614 а</text>
        </g>
        <g>
            <rect x="753.4" y="25.1" class="st13" width="179.1" height="175.2" id="d14"></rect> 
            <text transform="matrix(1 0 0 1 799.8521 190.2587)" class="st3 ">614</text>
        </g>
        <g>
            <rect x="692.5" y="25.1" class="st6" width="60.9" height="175.2" id="d10"></rect>
            <text transform="matrix(1 0 0 1 718.1884 190.2587)" class="st3 ">610</text>           
        </g>
        <g>
            <rect x="519.9" y="25.1" class="st12" width="172.6" height="175.2" id="d8"></rect>
            <text transform="matrix(1 0 0 1 601.0071 190.2587)" class="st3 ">608</text>
        </g>
        <g>
            <rect x="575.4" y="379.7" class="st6" width="60.3" height="175.6" id="dwc"></rect>
            <text transform="matrix(1 0 0 1 593.7784 398.7562)" class="st3 ">WC</text>
        </g>
        <g>
            <rect x="635.7" y="379.7" class="st13" width="118.8" height="175.6" id="d9"></rect>
             <text transform="matrix(1 0 0 1 661.852 399.4054)" class="st3 ">609</text>
        </g>
        <g>
            <rect x="754.4" y="379.7" class="st6 stv" width="59.9" height="175.6" id="d11"></rect>
            <text transform="matrix(1 0 0 1 760.4904 398.8375)" class="st3 ">611 </text>
        </g>
        <g>
            <rect x="814.4" y="379.7" class="st13" width="183.6" height="175.6" id="d13"></rect>
            <text transform="matrix(1 0 0 1 876.1318 398.9286)" class="st3 ">613</text>
        </g>
        <g>
            <rect x="998" y="379.7" class="st13" width="53.3" height="175.6" id="d15"></rect>
            <text transform="matrix(1 0 0 1 1008.8994 399.0546)" class="st3 ">615</text>
        </g>
        <g>
            <rect x="1051.3" y="379.7" class="st13" width="175.6" height="175.6" id="d17"></rect>
            <text transform="matrix(1 0 0 1 1117.9373 398.7562)" class="st3 ">617</text>
        </g>
        <g>
            <rect x="1774.7" y="379.6" class="st13" width="183.1" height="175.5" id="d27"></rect>
            <text transform="matrix(1 0 0 1 1874.5066 398.812)" class="st3 ">627</text>
        </g>
        <g>
            <rect x="1663.9" y="379.6" class="st6" width="52.2" height="175.5" id="dwc"></rect>
            <text transform="matrix(1 0 0 1 1678.2899 398.7562)" class="st3 ">WC</text>
        </g>
        <g>
            <rect x="1404.6" y="379.8" class="st13" width="189.5" height="175.5" id="d23"></rect>
            <text transform="matrix(1 0 0 1 1482.3883 399.4654)" class="st3 ">623</text>
        </g>
        <g>
            <rect x="1345.1" y="379.8" class="st6" width="59.5" height="175.5" id="d21"></rect>
            <text transform="matrix(1 0 0 1 1367.4479 398.7562)" class="st3 ">621</text>
        </g>
        <g>
            <rect x="1716.2" y="379.5" class="st6" width="58.6" height="175.8" id="d25"></rect>
            <text transform="matrix(1 0 0 1 1729.4156 399.3608)" class="st3 ">625</text>
        </g>
        <g>
            <rect x="275.8" y="379.8" class="st6" width="90.6" height="175.5" id="d7"></rect>
            <text transform="matrix(1 0 0 1 314.7882 399.4054)" class="st3 ">607</text>
        </g>
        <g>
            <rect x="158.7" y="380.1" class="st6" width="117.1" height="175.5" id="d3"></rect>
            <text transform="matrix(1 0 0 1 182.9939 399.4054)" class="st3 ">603</text>
        </g>
        <g>
            <rect x="38.1" y="379.6" class="st6" width="120.6" height="175.7" id="d1"></rect>
            <text transform="matrix(1 0 0 1 45.809 397.107)" class="st3 ">601</text>
        </g>
        <g>
            <rect x="310.1" y="25.1" class="st6" width="56.2" height="175.2" id="d6"></rect>
            <text transform="matrix(1 0 0 1 329.8954 187.6068)" class="st3 ">606</text>
        </g>
        <g>
            <rect x="158.7" y="25.1" class="st11" width="151.4" height="175.2" id="d4"></rect>
            <text transform="matrix(1 0 0 1 269.5237 190.16)" class="st3 ">604</text>
        </g>
        <g>
            <rect x="38.1" y="25.1" class="st6" width="120.6" height="175.2" id="d2"></rect>
            <text transform="matrix(1 0 0 1 105.7885 189.9037)" class="st3 ">602</text>
        </g>
        <g>
            <rect x="1714.1" y="25.1" class="st6" width="243.7" height="175.2" id="d26"></rect>
            <text transform="matrix(1 0 0 1 1802.8989 190.2587)" class="st3 ">626</text>
        </g>
        <g>
            <rect x="1654.5" y="25.1" class="st6 stv" width="59.6" height="175.2" id="d22"></rect>
            <text transform="matrix(1 0 0 1 1669.5903 190.2587)" class="st3 ">622</text>
        </g>
        <rect x="1596" y="25.1" class="st6" width="58.5" height="175.2"></rect>
        <line class="st0" x1="1108.9" y1="200.3" x2="1318.4" y2="200.3"></line>
        <line class="st0" x1="1654.5" y1="200.3" x2="1672.6" y2="200.3"></line>
  
    <g id="Слой_3">
        <text transform="matrix(1 0 0 1 87.4763 545.6823)" class=" st4">29.7</text>
        <text transform="matrix(1 0 0 1 202.9404 545.6823)" class=" st4">31.9</text>
        <text transform="matrix(1 0 0 1 302.9186 545.6823)" class=" st4">15.3</text>
        <text transform="matrix(1 0 0 1 79.987 41.6283)" class=" st4">33.8</text>
        <text transform="matrix(1 0 0 1 595.717 41.6283)" class=" st4">49.2</text>
        <text transform="matrix(1 0 0 1 710.6105 41.6283)" class=" st4">16.2</text>
        <text transform="matrix(1 0 0 1 832.4828 41.6283)" class=" st4">49.4</text>
        <text transform="matrix(1 0 0 1 956.326 41.6283)" class=" st4">10.5</text>
        <text transform="matrix(1 0 0 1 1015.9282 41.6283)" class=" st4">8.7</text>
        <text transform="matrix(1 0 0 1 1069.439 41.6283)" class=" st4">18.1</text>
        <text transform="matrix(1 0 0 1 1213.3013 41.6283)" class=" st4">50.0</text>
        <text transform="matrix(1 0 0 1 1431.8545 41.6283)" class=" st4">49.8</text>
        <text transform="matrix(1 0 0 1 1553.3339 41.6283)" class=" st4">17.0</text>
        <text transform="matrix(1 0 0 1 1614.7635 41.6283)" class=" st4">16.5</text>
        <text transform="matrix(1 0 0 1 1673.8274 41.6283)" class=" st4">16.2</text>
        <text transform="matrix(1 0 0 1 1827.2742 41.6283)" class=" st4">67.9</text>
        <text transform="matrix(1 0 0 1 215.9086 41.6283)" class=" st4">49.7</text>
        <text transform="matrix(1 0 0 1 329.6526 41.6283)" class=" st4">15.5</text>
        <text transform="matrix(1 0 0 1 598.1257 545.6823)" class=" st4">7.7</text>
        <text transform="matrix(1 0 0 1 684.5795 545.6823)" class=" st4">32.5</text>
        <text transform="matrix(1 0 0 1 776.1583 545.6823)" class=" st4">15.9</text>
        <text transform="matrix(1 0 0 1 895.3073 545.6823)" class=" st4">51.3</text>
        <text transform="matrix(1 0 0 1 1014.1511 545.6823)" class=" st4">13.6</text>
        <text transform="matrix(1 0 0 1 1128.6366 545.6823)" class=" st4">69.3</text>
        <text transform="matrix(1 0 0 1 1280.2084 545.6823)" class=" st4">32.0</text>
        <text transform="matrix(1 0 0 1 1366.1796 545.6823)" class=" st4">15.6 </text>
        <text transform="matrix(1 0 0 1 1488.8916 545.6823)" class=" st4">49.9</text>
        <text transform="matrix(1 0 0 1 1682.6375 545.6823)" class=" st4">7.7</text>
        <text transform="matrix(1 0 0 1 1738.0774 545.6823)" class=" st4">16.2</text>
        <text transform="matrix(1 0 0 1 1853.2336 545.6823)" class=" st4">50.6</text>
    </g>
    <g id="Слой_4">
        <g>
            <circle class="st8" cx="1563.8" cy="112.7" r="19.1"></circle>
            <path class="st9" d="M1582.9,113C1582.9,113,1582.8,112.9,1582.9,113c-2.6-2.6-5.1-5.1-7.6-7.6c-0.2-0.2-0.4-0.3-0.7-0.3
                c-3.6,0-7.1,0-10.6,0c-3.6,0-7.1,0-10.7,0c-0.1,0-0.2,0-0.2,0c-0.3,0-0.5,0.2-0.5,0.5c0,0.1,0,0.2,0,0.3c0,4.6,0,9.2,0,13.9
                c0,0.3,0.1,0.5,0.3,0.7c1.6,1.6,3.2,3.2,4.9,4.9c2.1,2.1,4.3,4.3,6.4,6.5c0,0,0.1,0.1,0.1,0.1
                C1574.4,131.6,1582.7,123.3,1582.9,113z"></path>
            <g>
                <path class="st10" d="M1553,120.4h21.6c0.4,0,0.6-0.3,0.6-0.6v-14.1c0-0.4-0.3-0.6-0.6-0.6H1553c-0.4,0-0.6,0.3-0.6,0.6v14.1
                    C1552.4,120.1,1552.7,120.4,1553,120.4z M1553.7,118.1l6.8-6.8l7.9,7.9h-14.7V118.1z M1570.2,119.1l-2.7-2.7l2-2l4.3,4.3
                    c0,0,0.1,0.1,0.1,0.1v0.3L1570.2,119.1L1570.2,119.1z M1574,106.3v10.8l-4-4c-0.3-0.3-0.7-0.3-0.9,0l-2.4,2.4l-5.6-5.6
                    c-0.3-0.3-0.7-0.3-0.9,0l-6.4,6.4v-10H1574z"></path>
                <path class="st10" d="M1566.5,112.3c1.3,0,2.4-1.1,2.4-2.4c0-1.3-1.1-2.4-2.4-2.4s-2.4,1.1-2.4,2.4
                    C1564.1,111.2,1565.2,112.3,1566.5,112.3z M1566.5,108.8c0.6,0,1.1,0.5,1.1,1.1c0,0.6-0.5,1.1-1.1,1.1s-1.1-0.5-1.1-1.1
                    C1565.4,109.3,1565.9,108.8,1566.5,108.8z"></path>
            </g>
        </g>
        <g>
            <circle class="st8" cx="966.8" cy="112.7" r="19.1"></circle>
            <path class="st9" d="M985.9,113C985.8,113,985.8,112.9,985.9,113c-2.6-2.6-5.1-5.1-7.6-7.6c-0.2-0.2-0.4-0.3-0.7-0.3
                c-3.6,0-7.1,0-10.6,0c-3.6,0-7.1,0-10.7,0c-0.1,0-0.2,0-0.2,0c-0.3,0-0.5,0.2-0.5,0.5c0,0.1,0,0.2,0,0.3c0,4.6,0,9.2,0,13.9
                c0,0.3,0.1,0.5,0.3,0.7c1.6,1.6,3.2,3.2,4.9,4.9c2.1,2.1,4.3,4.3,6.4,6.5c0,0,0.1,0.1,0.1,0.1C977.4,131.6,985.7,123.3,985.9,113z
                "></path>
            <g>
                <path class="st10" d="M956,120.4h21.6c0.4,0,0.6-0.3,0.6-0.6v-14.1c0-0.4-0.3-0.6-0.6-0.6H956c-0.4,0-0.6,0.3-0.6,0.6v14.1
                    C955.4,120.1,955.7,120.4,956,120.4z M956.6,118.1l6.8-6.8l7.9,7.9h-14.7V118.1z M973.2,119.1l-2.7-2.7l2-2l4.3,4.3
                    c0,0,0.1,0.1,0.1,0.1v0.3L973.2,119.1L973.2,119.1z M977,106.3v10.8l-4-4c-0.3-0.3-0.7-0.3-0.9,0l-2.4,2.4l-5.6-5.6
                    c-0.3-0.3-0.7-0.3-0.9,0l-6.4,6.4v-10H977z"></path>
                <path class="st10" d="M969.5,112.3c1.3,0,2.4-1.1,2.4-2.4c0-1.3-1.1-2.4-2.4-2.4c-1.3,0-2.4,1.1-2.4,2.4
                    C967.1,111.2,968.2,112.3,969.5,112.3z M969.5,108.8c0.6,0,1.1,0.5,1.1,1.1c0,0.6-0.5,1.1-1.1,1.1c-0.6,0-1.1-0.5-1.1-1.1
                    C968.4,109.3,968.9,108.8,969.5,108.8z"></path>
            </g>
        </g>
        <g>
            <circle class="st8" cx="843" cy="112.7" r="19.1"></circle>
            <path class="st9" d="M862,113C862,113,862,112.9,862,113c-2.6-2.6-5.1-5.1-7.6-7.6c-0.2-0.2-0.4-0.3-0.7-0.3c-3.6,0-7.1,0-10.6,0
                s-7.1,0-10.7,0c-0.1,0-0.2,0-0.2,0c-0.3,0-0.5,0.2-0.5,0.5c0,0.1,0,0.2,0,0.3c0,4.6,0,9.2,0,13.9c0,0.3,0.1,0.5,0.3,0.7
                c1.6,1.6,3.2,3.2,4.9,4.9c2.1,2.1,4.3,4.3,6.4,6.5c0,0,0.1,0.1,0.1,0.1C853.6,131.6,861.9,123.3,862,113z"></path>
            <g>
                <path class="st10" d="M832.2,120.4h21.6c0.4,0,0.6-0.3,0.6-0.6v-14.1c0-0.4-0.3-0.6-0.6-0.6h-21.6c-0.4,0-0.6,0.3-0.6,0.6v14.1
                    C831.5,120.1,831.8,120.4,832.2,120.4z M832.8,118.1l6.8-6.8l7.9,7.9h-14.7V118.1z M849.3,119.1l-2.7-2.7l2-2l4.3,4.3
                    c0,0,0.1,0.1,0.1,0.1v0.3L849.3,119.1L849.3,119.1z M853.1,106.3v10.8l-4-4c-0.3-0.3-0.7-0.3-0.9,0l-2.4,2.4l-5.6-5.6
                    c-0.3-0.3-0.7-0.3-0.9,0l-6.4,6.4v-10H853.1z"></path>
                <path class="st10" d="M845.7,112.3c1.3,0,2.4-1.1,2.4-2.4c0-1.3-1.1-2.4-2.4-2.4s-2.4,1.1-2.4,2.4
                    C843.3,111.2,844.4,112.3,845.7,112.3z M845.7,108.8c0.6,0,1.1,0.5,1.1,1.1c0,0.6-0.5,1.1-1.1,1.1s-1.1-0.5-1.1-1.1
                    C844.6,109.3,845.1,108.8,845.7,108.8z"></path>
            </g>
        </g>
        <g>
            <circle class="st8" cx="1026" cy="112.7" r="19.1"></circle>
            <path class="st9" d="M1045.1,113C1045.1,113,1045.1,112.9,1045.1,113c-2.6-2.6-5.1-5.1-7.6-7.6c-0.2-0.2-0.4-0.3-0.7-0.3
                c-3.6,0-7.1,0-10.6,0c-3.6,0-7.1,0-10.7,0c-0.1,0-0.2,0-0.2,0c-0.3,0-0.5,0.2-0.5,0.5c0,0.1,0,0.2,0,0.3c0,4.6,0,9.2,0,13.9
                c0,0.3,0.1,0.5,0.3,0.7c1.6,1.6,3.2,3.2,4.9,4.9c2.1,2.1,4.3,4.3,6.4,6.5c0,0,0.1,0.1,0.1,0.1
                C1036.6,131.6,1044.9,123.3,1045.1,113z"></path>
            <g>
                <path class="st10" d="M1015.2,120.4h21.6c0.4,0,0.6-0.3,0.6-0.6v-14.1c0-0.4-0.3-0.6-0.6-0.6h-21.6c-0.4,0-0.6,0.3-0.6,0.6v14.1
                    C1014.6,120.1,1014.9,120.4,1015.2,120.4z M1015.9,118.1l6.8-6.8l7.9,7.9h-14.7V118.1z M1032.4,119.1l-2.7-2.7l2-2l4.3,4.3
                    c0,0,0.1,0.1,0.1,0.1v0.3L1032.4,119.1L1032.4,119.1z M1036.2,106.3v10.8l-4-4c-0.3-0.3-0.7-0.3-0.9,0l-2.4,2.4l-5.6-5.6
                    c-0.3-0.3-0.7-0.3-0.9,0l-6.4,6.4v-10H1036.2z"></path>
                <path class="st10" d="M1028.8,112.3c1.3,0,2.4-1.1,2.4-2.4c0-1.3-1.1-2.4-2.4-2.4s-2.4,1.1-2.4,2.4
                    C1026.4,111.2,1027.4,112.3,1028.8,112.3z M1028.8,108.8c0.6,0,1.1,0.5,1.1,1.1c0,0.6-0.5,1.1-1.1,1.1s-1.1-0.5-1.1-1.1
                    C1027.6,109.3,1028.1,108.8,1028.8,108.8z"></path>
            </g>
        </g>
        <g>
            <circle class="st8" cx="606.2" cy="112.7" r="19.1"></circle>
            <path class="st9" d="M625.2,113C625.2,113,625.2,112.9,625.2,113c-2.6-2.6-5.1-5.1-7.6-7.6c-0.2-0.2-0.4-0.3-0.7-0.3
                c-3.6,0-7.1,0-10.6,0c-3.6,0-7.1,0-10.7,0c-0.1,0-0.2,0-0.2,0c-0.3,0-0.5,0.2-0.5,0.5c0,0.1,0,0.2,0,0.3c0,4.6,0,9.2,0,13.9
                c0,0.3,0.1,0.5,0.3,0.7c1.6,1.6,3.2,3.2,4.9,4.9c2.1,2.1,4.3,4.3,6.4,6.5c0,0,0.1,0.1,0.1,0.1C616.8,131.6,625.1,123.3,625.2,113z
                "></path>
            <g>
                <path class="st10" d="M595.4,120.4H617c0.4,0,0.6-0.3,0.6-0.6v-14.1c0-0.4-0.3-0.6-0.6-0.6h-21.6c-0.4,0-0.6,0.3-0.6,0.6v14.1
                    C594.8,120.1,595,120.4,595.4,120.4z M596,118.1l6.8-6.8l7.9,7.9H596V118.1z M612.6,119.1l-2.7-2.7l2-2l4.3,4.3
                    c0,0,0.1,0.1,0.1,0.1v0.3L612.6,119.1L612.6,119.1z M616.3,106.3v10.8l-4-4c-0.3-0.3-0.7-0.3-0.9,0l-2.4,2.4l-5.6-5.6
                    c-0.3-0.3-0.7-0.3-0.9,0l-6.4,6.4v-10H616.3z"></path>
                <path class="st10" d="M608.9,112.3c1.3,0,2.4-1.1,2.4-2.4c0-1.3-1.1-2.4-2.4-2.4s-2.4,1.1-2.4,2.4
                    C606.5,111.2,607.6,112.3,608.9,112.3z M608.9,108.8c0.6,0,1.1,0.5,1.1,1.1c0,0.6-0.5,1.1-1.1,1.1c-0.6,0-1.1-0.5-1.1-1.1
                    C607.8,109.3,608.3,108.8,608.9,108.8z"></path>
            </g>
        </g>
        <g>
            <circle class="st8" cx="1024.6" cy="467.5" r="19.1"></circle>
            <path class="st9" d="M1043.7,467.8C1043.7,467.8,1043.6,467.8,1043.7,467.8c-2.6-2.6-5.1-5.1-7.6-7.6c-0.2-0.2-0.4-0.3-0.7-0.3
                c-3.6,0-7.1,0-10.6,0c-3.6,0-7.1,0-10.7,0c-0.1,0-0.2,0-0.2,0c-0.3,0-0.5,0.2-0.5,0.5c0,0.1,0,0.2,0,0.3c0,4.6,0,9.2,0,13.9
                c0,0.3,0.1,0.5,0.3,0.7c1.6,1.6,3.2,3.2,4.9,4.9c2.1,2.1,4.3,4.3,6.4,6.5c0,0,0.1,0.1,0.1,0.1
                C1035.2,486.4,1043.5,478.1,1043.7,467.8z"></path>
            <g>
                <path class="st10" d="M1013.8,475.2h21.6c0.4,0,0.6-0.3,0.6-0.6v-14.1c0-0.4-0.3-0.6-0.6-0.6h-21.6c-0.4,0-0.6,0.3-0.6,0.6v14.1
                    C1013.2,474.9,1013.5,475.2,1013.8,475.2z M1014.5,472.9l6.8-6.8l7.9,7.9h-14.7V472.9z M1031,474l-2.7-2.7l2-2l4.3,4.3
                    c0,0,0.1,0.1,0.1,0.1v0.3L1031,474L1031,474z M1034.8,461.1v10.8l-4-4c-0.3-0.3-0.7-0.3-0.9,0l-2.4,2.4l-5.6-5.6
                    c-0.3-0.3-0.7-0.3-0.9,0l-6.4,6.4v-10H1034.8z"></path>
                <path class="st10" d="M1027.4,467.2c1.3,0,2.4-1.1,2.4-2.4c0-1.3-1.1-2.4-2.4-2.4c-1.3,0-2.4,1.1-2.4,2.4
                    C1024.9,466.1,1026,467.2,1027.4,467.2z M1027.4,463.6c0.6,0,1.1,0.5,1.1,1.1c0,0.6-0.5,1.1-1.1,1.1s-1.1-0.5-1.1-1.1
                    C1026.2,464.1,1026.7,463.6,1027.4,463.6z"></path>
            </g>
        </g>
        <g>
            <circle class="st8" cx="1132.5" cy="467.5" r="19.1"></circle>
            <path class="st9" d="M1151.5,467.8C1151.5,467.8,1151.5,467.8,1151.5,467.8c-2.6-2.6-5.1-5.1-7.6-7.6c-0.2-0.2-0.4-0.3-0.7-0.3
                c-3.6,0-7.1,0-10.6,0c-3.6,0-7.1,0-10.7,0c-0.1,0-0.2,0-0.2,0c-0.3,0-0.5,0.2-0.5,0.5c0,0.1,0,0.2,0,0.3c0,4.6,0,9.2,0,13.9
                c0,0.3,0.1,0.5,0.3,0.7c1.6,1.6,3.2,3.2,4.9,4.9c2.1,2.1,4.3,4.3,6.4,6.5c0,0,0.1,0.1,0.1,0.1
                C1143.1,486.4,1151.4,478.1,1151.5,467.8z"></path>
            <g>
                <path class="st10" d="M1121.7,475.2h21.6c0.4,0,0.6-0.3,0.6-0.6v-14.1c0-0.4-0.3-0.6-0.6-0.6h-21.6c-0.4,0-0.6,0.3-0.6,0.6v14.1
                    C1121,474.9,1121.3,475.2,1121.7,475.2z M1122.3,472.9l6.8-6.8l7.9,7.9h-14.7V472.9z M1138.8,474l-2.7-2.7l2-2l4.3,4.3
                    c0,0,0.1,0.1,0.1,0.1v0.3L1138.8,474L1138.8,474z M1142.6,461.1v10.8l-4-4c-0.3-0.3-0.7-0.3-0.9,0l-2.4,2.4l-5.6-5.6
                    c-0.3-0.3-0.7-0.3-0.9,0l-6.4,6.4v-10H1142.6z"></path>
                <path class="st10" d="M1135.2,467.2c1.3,0,2.4-1.1,2.4-2.4c0-1.3-1.1-2.4-2.4-2.4s-2.4,1.1-2.4,2.4
                    C1132.8,466.1,1133.9,467.2,1135.2,467.2z M1135.2,463.6c0.6,0,1.1,0.5,1.1,1.1c0,0.6-0.5,1.1-1.1,1.1s-1.1-0.5-1.1-1.1
                    C1134.1,464.1,1134.6,463.6,1135.2,463.6z"></path>
            </g>
        </g>
        <g>
            <circle class="st8" cx="1863.5" cy="467.5" r="19.1"></circle>
            <path class="st9" d="M1882.5,467.8C1882.5,467.8,1882.5,467.8,1882.5,467.8c-2.6-2.6-5.1-5.1-7.6-7.6c-0.2-0.2-0.4-0.3-0.7-0.3
                c-3.6,0-7.1,0-10.6,0s-7.1,0-10.7,0c-0.1,0-0.2,0-0.2,0c-0.3,0-0.5,0.2-0.5,0.5c0,0.1,0,0.2,0,0.3c0,4.6,0,9.2,0,13.9
                c0,0.3,0.1,0.5,0.3,0.7c1.6,1.6,3.2,3.2,4.9,4.9c2.1,2.1,4.3,4.3,6.4,6.5c0,0,0.1,0.1,0.1,0.1
                C1874.1,486.4,1882.4,478.1,1882.5,467.8z"></path>
            <g>
                <path class="st10" d="M1852.7,475.2h21.6c0.4,0,0.6-0.3,0.6-0.6v-14.1c0-0.4-0.3-0.6-0.6-0.6h-21.6c-0.4,0-0.6,0.3-0.6,0.6v14.1
                    C1852,474.9,1852.3,475.2,1852.7,475.2z M1853.3,472.9l6.8-6.8l7.9,7.9h-14.7V472.9z M1869.8,474l-2.7-2.7l2-2l4.3,4.3
                    c0,0,0.1,0.1,0.1,0.1v0.3L1869.8,474L1869.8,474z M1873.6,461.1v10.8l-4-4c-0.3-0.3-0.7-0.3-0.9,0l-2.4,2.4l-5.6-5.6
                    c-0.3-0.3-0.7-0.3-0.9,0l-6.4,6.4v-10H1873.6z"></path>
                <path class="st10" d="M1866.2,467.2c1.3,0,2.4-1.1,2.4-2.4c0-1.3-1.1-2.4-2.4-2.4c-1.3,0-2.4,1.1-2.4,2.4
                    C1863.8,466.1,1864.9,467.2,1866.2,467.2z M1866.2,463.6c0.6,0,1.1,0.5,1.1,1.1c0,0.6-0.5,1.1-1.1,1.1c-0.6,0-1.1-0.5-1.1-1.1
                    C1865.1,464.1,1865.6,463.6,1866.2,463.6z"></path>
            </g>
        </g>
    </g>
    <g id="Слой_5">
        <!-- <text transform="matrix(1 0 0 1 62.7848 87.9782)" class="st7 ">Деканат ФБГЕ</text> -->
        <text transform="matrix(1 0 0 1 208.126 87.9782)" class="st7 ">Комп. ауд.</text>
        <text transform="matrix(1 0 0 1 80.8265 502.7713)" class="st7 ">КФСГН</text>
        <!-- <text transform="matrix(1 0 0 1 177.7827 502.7713)" class="st7 ">Деканат ФБГЕ</text> -->
        <text transform="matrix(1 0 0 1 287.7193 502.7713)" class="st7 ">Метод. каб.</text>
        <text transform="matrix(1 0 0 1 669.5078 502.7713)" class="st7 ">Навч. ауд.</text>
        <text transform="matrix(1 0 0 1 877.326 502.7713)" class="st7 ">Навч. ауд.</text>
        <text transform="matrix(1 0 0 1 996.3995 502.7713)" class="st7 ">Навч. ауд.</text>
        <text transform="matrix(1 0 0 1 1104.5054 502.7713)" class="st7 ">Навч. ауд.</text>
        <text transform="matrix(1 0 0 1 1473.8197 502.7713)" class="st7 ">Навч. ауд.</text>
        <text transform="matrix(1 0 0 1 1837.4833 502.7713)" class="st7 ">Навч. ауд.</text>
        <text transform="matrix(1 0 0 1 1733.1448 502.7713)" class="st7 ">КСЕГ</text>
        <text transform="matrix(1 0 0 1 1281.8821 502.7713)" class="st7 ">КЕГ</text>
        <text transform="matrix(1 0 0 1 597.6317 87.9782)" class="st7 ">Лаб.</text>
        <text transform="matrix(1 0 0 1 1016.7708 87.9782)" class="st7 ">Лаб.</text>
        <text transform="matrix(1 0 0 1 821.0851 87.9782)" class="st7 ">Навч. ауд.</text>
        <text transform="matrix(1 0 0 1 938.855 87.9782)" class="st7 ">Навч. ауд.</text>
        <text transform="matrix(1 0 0 1 1201.6012 87.9782)" class="st7 ">Навч. ауд.</text>
        <text transform="matrix(1 0 0 1 1416.5261 87.9782)" class="st7 ">Профком</text>
        <text transform="matrix(1 0 0 1 1534.2621 87.9782)" class="st7 ">Навч. ауд.</text>
        <text transform="matrix(1 0 0 1 1788.2992 87.9782)" class="st7 ">Зоологічний музей</text>
    </g>
    <g id="Слой_6">
        <polyline class="st1" points="52.9,602.9 56.6,611.4 60.5,611.4 60.5,573.3 38.1,573.3 38.1,611.4 41.9,611.4 45.6,602.9 		"></polyline>
        <rect x="38.1" y="621.1" class="st5" width="11" height="44.9"></rect>
        <text transform="matrix(1 0 0 1 68.8309 595.8264)" style="font-size: 15px; font-weight:500;" class="st7">Сходи</text>
        <text transform="matrix(1 0 0 1 68.8309 647.1559)" style="font-size: 15px; font-weight:500;" class="st7">Ліфт</text>
        <rect x="38.1" y="676.7" class="stv" width="19.7" height="46"></rect>
	    <text transform="matrix(1 0 0 1 68.8309 705.2941)" style="font-size: 15px; font-weight:500;" class="st7">Відділ</text>
    </g>
    </g></svg>